<?xml version="1.0" encoding="UTF-8" standalone="no"?>
<!DOCTYPE svg PUBLIC "-//W3C//DTD SVG 1.1//EN"
 "http://www.w3.org/Graphics/SVG/1.1/DTD/svg11.dtd">
<!-- Generated by graphviz version 12.2.1 (20241206.2353)
 -->
<!-- Pages: 1 -->
<svg width="244pt" height="188pt"
 viewBox="0.00 0.00 244.37 188.00" xmlns="http://www.w3.org/2000/svg" xmlns:xlink="http://www.w3.org/1999/xlink">
<g id="graph0" class="graph" transform="scale(1 1) rotate(0) translate(4 184)">
<polygon fill="white" stroke="none" points="-4,4 -4,-184 240.37,-184 240.37,4 -4,4"/>
<!-- T -->
<g id="node1" class="node">
<title>T</title>
<ellipse fill="none" stroke="black" cx="55" cy="-162" rx="27" ry="18"/>
<text text-anchor="middle" x="55" y="-156.95" font-family="Times,serif" font-size="14.00">T</text>
</g>
<!-- X -->
<g id="node2" class="node">
<title>X</title>
<ellipse fill="none" stroke="red" cx="27" cy="-90" rx="27" ry="18"/>
<text text-anchor="middle" x="27" y="-84.95" font-family="Times,serif" font-size="14.00">X</text>
</g>
<!-- T&#45;&gt;X -->
<g id="edge1" class="edge">
<title>T&#45;&gt;X</title>
<path fill="none" stroke="black" d="M48.36,-144.41C45.23,-136.57 41.4,-126.99 37.85,-118.13"/>
<polygon fill="black" stroke="black" points="41.11,-116.86 34.15,-108.88 34.61,-119.46 41.11,-116.86"/>
</g>
<!-- Y -->
<g id="node3" class="node">
<title>Y</title>
<ellipse fill="none" stroke="black" cx="55" cy="-18" rx="27" ry="18"/>
<text text-anchor="middle" x="55" y="-12.95" font-family="Times,serif" font-size="14.00">Y</text>
</g>
<!-- T&#45;&gt;Y -->
<g id="edge2" class="edge">
<title>T&#45;&gt;Y</title>
<path fill="none" stroke="black" d="M58.25,-143.89C60.05,-133.54 62.09,-120.06 63,-108 64.2,-92.04 64.2,-87.96 63,-72 62.4,-63.99 61.29,-55.35 60.09,-47.43"/>
<polygon fill="black" stroke="black" points="63.55,-46.91 58.49,-37.61 56.65,-48.04 63.55,-46.91"/>
</g>
<!-- X&#45;&gt;Y -->
<g id="edge3" class="edge">
<title>X&#45;&gt;Y</title>
<path fill="none" stroke="black" d="M33.64,-72.41C36.77,-64.57 40.6,-54.99 44.15,-46.13"/>
<polygon fill="black" stroke="black" points="47.39,-47.46 47.85,-36.88 40.89,-44.86 47.39,-47.46"/>
</g>
<!-- educ -->
<g id="node4" class="node">
<title>educ</title>
<ellipse fill="none" stroke="black" cx="206" cy="-162" rx="28.32" ry="18"/>
<text text-anchor="middle" x="206" y="-156.95" font-family="Times,serif" font-size="14.00">educ</text>
</g>
<!-- white collar -->
<g id="node5" class="node">
<title>white collar</title>
<ellipse fill="none" stroke="black" cx="165" cy="-90" rx="54.93" ry="18"/>
<text text-anchor="middle" x="165" y="-84.95" font-family="Times,serif" font-size="14.00">white collar</text>
</g>
<!-- educ&#45;&gt;white collar -->
<g id="edge4" class="edge">
<title>educ&#45;&gt;white collar</title>
<path fill="none" stroke="black" d="M196.49,-144.76C191.82,-136.78 186.06,-126.95 180.75,-117.89"/>
<polygon fill="black" stroke="black" points="183.87,-116.29 175.79,-109.43 177.83,-119.83 183.87,-116.29"/>
</g>
<!-- wage -->
<g id="node6" class="node">
<title>wage</title>
<ellipse fill="none" stroke="black" cx="206" cy="-18" rx="30.37" ry="18"/>
<text text-anchor="middle" x="206" y="-12.95" font-family="Times,serif" font-size="14.00">wage</text>
</g>
<!-- educ&#45;&gt;wage -->
<g id="edge5" class="edge">
<title>educ&#45;&gt;wage</title>
<path fill="none" stroke="black" d="M215.07,-144.87C220.28,-134.65 226.31,-120.96 229,-108 232.25,-92.33 232.25,-87.67 229,-72 227.18,-63.22 223.82,-54.11 220.23,-45.98"/>
<polygon fill="black" stroke="black" points="223.4,-44.5 215.95,-36.97 217.08,-47.5 223.4,-44.5"/>
</g>
<!-- white collar&#45;&gt;wage -->
<g id="edge6" class="edge">
<title>white collar&#45;&gt;wage</title>
<path fill="none" stroke="black" d="M174.92,-72.05C179.68,-63.94 185.47,-54.04 190.77,-45.01"/>
<polygon fill="black" stroke="black" points="193.65,-47.01 195.68,-36.61 187.61,-43.47 193.65,-47.01"/>
</g>
</g>
</svg>