<?xml version="1.0" encoding="UTF-8" standalone="no"?>
<!DOCTYPE svg PUBLIC "-//W3C//DTD SVG 1.1//EN"
 "http://www.w3.org/Graphics/SVG/1.1/DTD/svg11.dtd">
<!-- Generated by graphviz version 12.2.1 (20241206.2353)
 -->
<!-- Pages: 1 -->
<svg width="230pt" height="188pt"
 viewBox="0.00 0.00 230.42 188.00" xmlns="http://www.w3.org/2000/svg" xmlns:xlink="http://www.w3.org/1999/xlink">
<g id="graph0" class="graph" transform="scale(1 1) rotate(0) translate(4 184)">
<polygon fill="white" stroke="none" points="-4,4 -4,-184 226.42,-184 226.42,4 -4,4"/>
<!-- X -->
<g id="node1" class="node">
<title>X</title>
<ellipse fill="none" stroke="black" cx="62" cy="-162" rx="27" ry="18"/>
<text text-anchor="middle" x="62" y="-156.95" font-family="Times,serif" font-size="14.00">X</text>
</g>
<!-- T -->
<g id="node2" class="node">
<title>T</title>
<ellipse fill="none" stroke="black" cx="27" cy="-90" rx="27" ry="18"/>
<text text-anchor="middle" x="27" y="-84.95" font-family="Times,serif" font-size="14.00">T</text>
</g>
<!-- X&#45;&gt;T -->
<g id="edge1" class="edge">
<title>X&#45;&gt;T</title>
<path fill="none" stroke="black" d="M53.71,-144.41C49.7,-136.39 44.78,-126.57 40.27,-117.54"/>
<polygon fill="black" stroke="black" points="43.51,-116.2 35.91,-108.82 37.25,-119.33 43.51,-116.2"/>
</g>
<!-- Y -->
<g id="node3" class="node">
<title>Y</title>
<ellipse fill="none" stroke="black" cx="66" cy="-18" rx="27" ry="18"/>
<text text-anchor="middle" x="66" y="-12.95" font-family="Times,serif" font-size="14.00">Y</text>
</g>
<!-- X&#45;&gt;Y -->
<g id="edge2" class="edge">
<title>X&#45;&gt;Y</title>
<path fill="none" stroke="black" d="M62.49,-143.59C63.17,-119.61 64.39,-76.14 65.2,-47.42"/>
<polygon fill="black" stroke="black" points="68.69,-47.72 65.48,-37.62 61.7,-47.52 68.69,-47.72"/>
</g>
<!-- T&#45;&gt;Y -->
<g id="edge3" class="edge">
<title>T&#45;&gt;Y</title>
<path fill="none" stroke="black" d="M36.05,-72.76C40.62,-64.55 46.29,-54.37 51.46,-45.09"/>
<polygon fill="black" stroke="black" points="54.46,-46.91 56.27,-36.47 48.34,-43.5 54.46,-46.91"/>
</g>
<!-- Intelligence -->
<g id="node4" class="node">
<title>Intelligence</title>
<ellipse fill="none" stroke="black" cx="168" cy="-162" rx="54.42" ry="18"/>
<text text-anchor="middle" x="168" y="-156.95" font-family="Times,serif" font-size="14.00">Intelligence</text>
</g>
<!-- Educ -->
<g id="node5" class="node">
<title>Educ</title>
<ellipse fill="none" stroke="black" cx="149" cy="-90" rx="29.86" ry="18"/>
<text text-anchor="middle" x="149" y="-84.95" font-family="Times,serif" font-size="14.00">Educ</text>
</g>
<!-- Intelligence&#45;&gt;Educ -->
<g id="edge4" class="edge">
<title>Intelligence&#45;&gt;Educ</title>
<path fill="none" stroke="black" d="M163.3,-143.7C161.28,-136.24 158.86,-127.32 156.59,-118.97"/>
<polygon fill="black" stroke="black" points="160.04,-118.3 154.04,-109.57 153.28,-120.13 160.04,-118.3"/>
</g>
<!-- Wage -->
<g id="node6" class="node">
<title>Wage</title>
<ellipse fill="none" stroke="black" cx="165" cy="-18" rx="32.41" ry="18"/>
<text text-anchor="middle" x="165" y="-12.95" font-family="Times,serif" font-size="14.00">Wage</text>
</g>
<!-- Intelligence&#45;&gt;Wage -->
<g id="edge5" class="edge">
<title>Intelligence&#45;&gt;Wage</title>
<path fill="none" stroke="black" d="M176.31,-143.79C180.74,-133.63 185.74,-120.38 188,-108 190.87,-92.26 191.25,-87.67 188,-72 186.18,-63.22 182.82,-54.11 179.23,-45.98"/>
<polygon fill="black" stroke="black" points="182.4,-44.5 174.95,-36.97 176.08,-47.5 182.4,-44.5"/>
</g>
<!-- Educ&#45;&gt;Wage -->
<g id="edge6" class="edge">
<title>Educ&#45;&gt;Wage</title>
<path fill="none" stroke="black" d="M152.96,-71.7C154.64,-64.32 156.65,-55.52 158.54,-47.25"/>
<polygon fill="black" stroke="black" points="161.94,-48.11 160.75,-37.58 155.11,-46.55 161.94,-48.11"/>
</g>
</g>
</svg>