<?xml version="1.0" encoding="UTF-8" standalone="no"?>
<!DOCTYPE svg PUBLIC "-//W3C//DTD SVG 1.1//EN"
 "http://www.w3.org/Graphics/SVG/1.1/DTD/svg11.dtd">
<!-- Generated by graphviz version 12.2.1 (20241206.2353)
 -->
<!-- Pages: 1 -->
<svg width="458pt" height="116pt"
 viewBox="0.00 0.00 457.79 116.00" xmlns="http://www.w3.org/2000/svg" xmlns:xlink="http://www.w3.org/1999/xlink">
<g id="graph0" class="graph" transform="scale(1 1) rotate(0) translate(4 112)">
<polygon fill="white" stroke="none" points="-4,4 -4,-112 453.79,-112 453.79,4 -4,4"/>
<!-- X -->
<g id="node1" class="node">
<title>X</title>
<ellipse fill="none" stroke="black" cx="27" cy="-90" rx="27" ry="18"/>
<text text-anchor="middle" x="27" y="-84.95" font-family="Times,serif" font-size="14.00">X</text>
</g>
<!-- Y -->
<g id="node2" class="node">
<title>Y</title>
<ellipse fill="none" stroke="black" cx="63" cy="-18" rx="27" ry="18"/>
<text text-anchor="middle" x="63" y="-12.95" font-family="Times,serif" font-size="14.00">Y</text>
</g>
<!-- X&#45;&gt;Y -->
<g id="edge1" class="edge">
<title>X&#45;&gt;Y</title>
<path fill="none" stroke="black" d="M35.35,-72.76C39.58,-64.55 44.81,-54.37 49.58,-45.09"/>
<polygon fill="black" stroke="black" points="52.54,-46.99 54,-36.49 46.32,-43.79 52.54,-46.99"/>
</g>
<!-- T -->
<g id="node3" class="node">
<title>T</title>
<ellipse fill="none" stroke="gold" cx="99" cy="-90" rx="27" ry="18"/>
<text text-anchor="middle" x="99" y="-84.95" font-family="Times,serif" font-size="14.00">T</text>
</g>
<!-- T&#45;&gt;Y -->
<g id="edge2" class="edge">
<title>T&#45;&gt;Y</title>
<path fill="none" stroke="black" d="M90.65,-72.76C86.42,-64.55 81.19,-54.37 76.42,-45.09"/>
<polygon fill="black" stroke="black" points="79.68,-43.79 72,-36.49 73.46,-46.99 79.68,-43.79"/>
</g>
<!-- email -->
<g id="node4" class="node">
<title>email</title>
<ellipse fill="none" stroke="gold" cx="176" cy="-90" rx="31.9" ry="18"/>
<text text-anchor="middle" x="176" y="-84.95" font-family="Times,serif" font-size="14.00">email</text>
</g>
<!-- payments -->
<g id="node6" class="node">
<title>payments</title>
<ellipse fill="none" stroke="black" cx="280" cy="-18" rx="46.75" ry="18"/>
<text text-anchor="middle" x="280" y="-12.95" font-family="Times,serif" font-size="14.00">payments</text>
</g>
<!-- email&#45;&gt;payments -->
<g id="edge5" class="edge">
<title>email&#45;&gt;payments</title>
<path fill="none" stroke="black" d="M196.05,-75.5C210.76,-65.61 231.02,-51.96 247.96,-40.56"/>
<polygon fill="black" stroke="black" points="249.88,-43.49 256.23,-35 245.98,-37.68 249.88,-43.49"/>
</g>
<!-- credit_limit -->
<g id="node5" class="node">
<title>credit_limit</title>
<ellipse fill="none" stroke="black" cx="280" cy="-90" rx="54.42" ry="18"/>
<text text-anchor="middle" x="280" y="-84.95" font-family="Times,serif" font-size="14.00">credit_limit</text>
</g>
<!-- credit_limit&#45;&gt;payments -->
<g id="edge3" class="edge">
<title>credit_limit&#45;&gt;payments</title>
<path fill="none" stroke="black" d="M280,-71.7C280,-64.41 280,-55.73 280,-47.54"/>
<polygon fill="black" stroke="black" points="283.5,-47.62 280,-37.62 276.5,-47.62 283.5,-47.62"/>
</g>
<!-- risk_score -->
<g id="node7" class="node">
<title>risk_score</title>
<ellipse fill="none" stroke="black" cx="401" cy="-90" rx="48.79" ry="18"/>
<text text-anchor="middle" x="401" y="-84.95" font-family="Times,serif" font-size="14.00">risk_score</text>
</g>
<!-- risk_score&#45;&gt;payments -->
<g id="edge4" class="edge">
<title>risk_score&#45;&gt;payments</title>
<path fill="none" stroke="black" d="M375.63,-74.33C357.93,-64.08 334.08,-50.29 314.63,-39.04"/>
<polygon fill="black" stroke="black" points="316.64,-36.15 306.23,-34.17 313.13,-42.21 316.64,-36.15"/>
</g>
</g>
</svg>