<?xml version="1.0" encoding="UTF-8" standalone="no"?>
<!DOCTYPE svg PUBLIC "-//W3C//DTD SVG 1.1//EN"
 "http://www.w3.org/Graphics/SVG/1.1/DTD/svg11.dtd">
<!-- Generated by graphviz version 12.2.1 (20241206.2353)
 -->
<!-- Pages: 1 -->
<svg width="466pt" height="116pt"
 viewBox="0.00 0.00 465.93 116.00" xmlns="http://www.w3.org/2000/svg" xmlns:xlink="http://www.w3.org/1999/xlink">
<g id="graph0" class="graph" transform="scale(1 1) rotate(0) translate(4 112)">
<polygon fill="white" stroke="none" points="-4,4 -4,-112 461.93,-112 461.93,4 -4,4"/>
<!-- B -->
<g id="node1" class="node">
<title>B</title>
<ellipse fill="none" stroke="black" cx="27" cy="-90" rx="27" ry="18"/>
<text text-anchor="middle" x="27" y="-84.95" font-family="Times,serif" font-size="14.00">B</text>
</g>
<!-- C -->
<g id="node2" class="node">
<title>C</title>
<ellipse fill="none" stroke="black" cx="63" cy="-18" rx="27" ry="18"/>
<text text-anchor="middle" x="63" y="-12.95" font-family="Times,serif" font-size="14.00">C</text>
</g>
<!-- B&#45;&gt;C -->
<g id="edge1" class="edge">
<title>B&#45;&gt;C</title>
<path fill="none" stroke="black" d="M35.35,-72.76C39.58,-64.55 44.81,-54.37 49.58,-45.09"/>
<polygon fill="black" stroke="black" points="52.54,-46.99 54,-36.49 46.32,-43.79 52.54,-46.99"/>
</g>
<!-- A -->
<g id="node3" class="node">
<title>A</title>
<ellipse fill="none" stroke="black" cx="99" cy="-90" rx="27" ry="18"/>
<text text-anchor="middle" x="99" y="-84.95" font-family="Times,serif" font-size="14.00">A</text>
</g>
<!-- A&#45;&gt;C -->
<g id="edge2" class="edge">
<title>A&#45;&gt;C</title>
<path fill="none" stroke="black" d="M90.65,-72.76C86.42,-64.55 81.19,-54.37 76.42,-45.09"/>
<polygon fill="black" stroke="black" points="79.68,-43.79 72,-36.49 73.46,-46.99 79.68,-43.79"/>
</g>
<!-- Y -->
<g id="node4" class="node">
<title>Y</title>
<ellipse fill="none" stroke="black" cx="171" cy="-90" rx="27" ry="18"/>
<text text-anchor="middle" x="171" y="-84.95" font-family="Times,serif" font-size="14.00">Y</text>
</g>
<!-- X -->
<g id="node5" class="node">
<title>X</title>
<ellipse fill="none" stroke="red" cx="207" cy="-18" rx="27" ry="18"/>
<text text-anchor="middle" x="207" y="-12.95" font-family="Times,serif" font-size="14.00">X</text>
</g>
<!-- Y&#45;&gt;X -->
<g id="edge3" class="edge">
<title>Y&#45;&gt;X</title>
<path fill="none" stroke="black" d="M179.35,-72.76C183.58,-64.55 188.81,-54.37 193.58,-45.09"/>
<polygon fill="black" stroke="black" points="196.54,-46.99 198,-36.49 190.32,-43.79 196.54,-46.99"/>
</g>
<!-- Z -->
<g id="node6" class="node">
<title>Z</title>
<ellipse fill="none" stroke="black" cx="243" cy="-90" rx="27" ry="18"/>
<text text-anchor="middle" x="243" y="-84.95" font-family="Times,serif" font-size="14.00">Z</text>
</g>
<!-- Z&#45;&gt;X -->
<g id="edge4" class="edge">
<title>Z&#45;&gt;X</title>
<path fill="none" stroke="black" d="M234.65,-72.76C230.42,-64.55 225.19,-54.37 220.42,-45.09"/>
<polygon fill="black" stroke="black" points="223.68,-43.79 216,-36.49 217.46,-46.99 223.68,-43.79"/>
</g>
<!-- statistics -->
<g id="node7" class="node">
<title>statistics</title>
<ellipse fill="none" stroke="black" cx="331" cy="-90" rx="42.65" ry="18"/>
<text text-anchor="middle" x="331" y="-84.95" font-family="Times,serif" font-size="14.00">statistics</text>
</g>
<!-- job promotion -->
<g id="node8" class="node">
<title>job promotion</title>
<ellipse fill="none" stroke="black" cx="378" cy="-18" rx="64.15" ry="18"/>
<text text-anchor="middle" x="378" y="-12.95" font-family="Times,serif" font-size="14.00">job promotion</text>
</g>
<!-- statistics&#45;&gt;job promotion -->
<g id="edge5" class="edge">
<title>statistics&#45;&gt;job promotion</title>
<path fill="none" stroke="black" d="M342.14,-72.41C347.56,-64.34 354.21,-54.43 360.3,-45.35"/>
<polygon fill="black" stroke="black" points="363.1,-47.47 365.77,-37.21 357.29,-43.56 363.1,-47.47"/>
</g>
<!-- flatter -->
<g id="node9" class="node">
<title>flatter</title>
<ellipse fill="none" stroke="black" cx="425" cy="-90" rx="32.93" ry="18"/>
<text text-anchor="middle" x="425" y="-84.95" font-family="Times,serif" font-size="14.00">flatter</text>
</g>
<!-- flatter&#45;&gt;job promotion -->
<g id="edge6" class="edge">
<title>flatter&#45;&gt;job promotion</title>
<path fill="none" stroke="black" d="M414.1,-72.76C408.68,-64.7 402,-54.74 395.86,-45.6"/>
<polygon fill="black" stroke="black" points="398.82,-43.73 390.34,-37.38 393.01,-47.63 398.82,-43.73"/>
</g>
</g>
</svg>