<?xml version="1.0" encoding="UTF-8" standalone="no"?>
<!DOCTYPE svg PUBLIC "-//W3C//DTD SVG 1.1//EN"
 "http://www.w3.org/Graphics/SVG/1.1/DTD/svg11.dtd">
<!-- Generated by graphviz version 12.2.1 (20241206.2353)
 -->
<!-- Pages: 1 -->
<svg width="286pt" height="116pt"
 viewBox="0.00 0.00 285.86 116.00" xmlns="http://www.w3.org/2000/svg" xmlns:xlink="http://www.w3.org/1999/xlink">
<g id="graph0" class="graph" transform="scale(1 1) rotate(0) translate(4 112)">
<polygon fill="white" stroke="none" points="-4,4 -4,-112 281.86,-112 281.86,4 -4,4"/>
<!-- W -->
<g id="node1" class="node">
<title>W</title>
<ellipse fill="none" stroke="black" cx="27" cy="-90" rx="27" ry="18"/>
<text text-anchor="middle" x="27" y="-84.95" font-family="Times,serif" font-size="14.00">W</text>
</g>
<!-- Y -->
<g id="node2" class="node">
<title>Y</title>
<ellipse fill="none" stroke="black" cx="80" cy="-18" rx="27" ry="18"/>
<text text-anchor="middle" x="80" y="-12.95" font-family="Times,serif" font-size="14.00">Y</text>
</g>
<!-- W&#45;&gt;Y -->
<g id="edge1" class="edge">
<title>W&#45;&gt;Y</title>
<path fill="none" stroke="black" d="M38.76,-73.46C45.42,-64.67 53.89,-53.48 61.43,-43.53"/>
<polygon fill="black" stroke="black" points="64.11,-45.78 67.36,-35.7 58.53,-41.56 64.11,-45.78"/>
</g>
<!-- T -->
<g id="node3" class="node">
<title>T</title>
<ellipse fill="none" stroke="black" cx="99" cy="-90" rx="27" ry="18"/>
<text text-anchor="middle" x="99" y="-84.95" font-family="Times,serif" font-size="14.00">T</text>
</g>
<!-- T&#45;&gt;Y -->
<g id="edge2" class="edge">
<title>T&#45;&gt;Y</title>
<path fill="none" stroke="black" d="M94.4,-72.05C92.35,-64.49 89.87,-55.37 87.56,-46.85"/>
<polygon fill="black" stroke="black" points="90.95,-45.98 84.95,-37.25 84.2,-47.82 90.95,-45.98"/>
</g>
<!-- IQ -->
<g id="node4" class="node">
<title>IQ</title>
<ellipse fill="none" stroke="black" cx="173" cy="-90" rx="27" ry="18"/>
<text text-anchor="middle" x="173" y="-84.95" font-family="Times,serif" font-size="14.00">IQ</text>
</g>
<!-- Wage -->
<g id="node5" class="node">
<title>Wage</title>
<ellipse fill="none" stroke="black" cx="191" cy="-18" rx="32.41" ry="18"/>
<text text-anchor="middle" x="191" y="-12.95" font-family="Times,serif" font-size="14.00">Wage</text>
</g>
<!-- IQ&#45;&gt;Wage -->
<g id="edge3" class="edge">
<title>IQ&#45;&gt;Wage</title>
<path fill="none" stroke="red" d="M177.36,-72.05C179.27,-64.6 181.58,-55.64 183.74,-47.22"/>
<polygon fill="red" stroke="red" points="187.08,-48.3 186.18,-37.74 180.3,-46.55 187.08,-48.3"/>
</g>
<!-- Educ -->
<g id="node6" class="node">
<title>Educ</title>
<ellipse fill="none" stroke="black" cx="248" cy="-90" rx="29.86" ry="18"/>
<text text-anchor="middle" x="248" y="-84.95" font-family="Times,serif" font-size="14.00">Educ</text>
</g>
<!-- Educ&#45;&gt;Wage -->
<g id="edge4" class="edge">
<title>Educ&#45;&gt;Wage</title>
<path fill="none" stroke="red" d="M235.35,-73.46C228.22,-64.71 219.15,-53.56 211.07,-43.64"/>
<polygon fill="red" stroke="red" points="213.99,-41.7 204.97,-36.15 208.57,-46.12 213.99,-41.7"/>
</g>
</g>
</svg>