<?xml version="1.0" encoding="UTF-8" standalone="no"?>
<!DOCTYPE svg PUBLIC "-//W3C//DTD SVG 1.1//EN"
 "http://www.w3.org/Graphics/SVG/1.1/DTD/svg11.dtd">
<!-- Generated by graphviz version 12.2.1 (20241206.2353)
 -->
<!-- Pages: 1 -->
<svg width="314pt" height="260pt"
 viewBox="0.00 0.00 313.70 260.00" xmlns="http://www.w3.org/2000/svg" xmlns:xlink="http://www.w3.org/1999/xlink">
<g id="graph0" class="graph" transform="scale(1 1) rotate(0) translate(4 256)">
<polygon fill="white" stroke="none" points="-4,4 -4,-256 309.7,-256 309.7,4 -4,4"/>
<!-- email -->
<g id="node1" class="node">
<title>email</title>
<ellipse fill="none" stroke="black" cx="31.9" cy="-234" rx="31.9" ry="18"/>
<text text-anchor="middle" x="31.9" y="-228.95" font-family="Times,serif" font-size="14.00">email</text>
</g>
<!-- payments -->
<g id="node2" class="node">
<title>payments</title>
<ellipse fill="none" stroke="black" cx="175.9" cy="-18" rx="46.75" ry="18"/>
<text text-anchor="middle" x="175.9" y="-12.95" font-family="Times,serif" font-size="14.00">payments</text>
</g>
<!-- email&#45;&gt;payments -->
<g id="edge1" class="edge">
<title>email&#45;&gt;payments</title>
<path fill="none" stroke="black" d="M27.06,-215.78C19.24,-184.02 7.66,-115.53 38.9,-72 57.63,-45.91 91.08,-32.67 120.23,-25.94"/>
<polygon fill="black" stroke="black" points="120.6,-29.44 129.68,-23.98 119.17,-22.59 120.6,-29.44"/>
</g>
<!-- opened -->
<g id="node3" class="node">
<title>opened</title>
<ellipse fill="none" stroke="black" cx="135.9" cy="-162" rx="37.53" ry="18"/>
<text text-anchor="middle" x="135.9" y="-156.95" font-family="Times,serif" font-size="14.00">opened</text>
</g>
<!-- email&#45;&gt;opened -->
<g id="edge2" class="edge">
<title>email&#45;&gt;opened</title>
<path fill="none" stroke="black" d="M51.95,-219.5C67.19,-209.25 88.41,-194.97 105.7,-183.33"/>
<polygon fill="black" stroke="black" points="107.24,-186.51 113.59,-178.02 103.34,-180.7 107.24,-186.51"/>
</g>
<!-- agreement -->
<g id="node4" class="node">
<title>agreement</title>
<ellipse fill="none" stroke="black" cx="97.9" cy="-90" rx="49.82" ry="18"/>
<text text-anchor="middle" x="97.9" y="-84.95" font-family="Times,serif" font-size="14.00">agreement</text>
</g>
<!-- email&#45;&gt;agreement -->
<g id="edge3" class="edge">
<title>email&#45;&gt;agreement</title>
<path fill="none" stroke="black" d="M39.73,-216.15C51,-191.92 71.89,-146.96 85.33,-118.05"/>
<polygon fill="black" stroke="black" points="88.4,-119.74 89.44,-109.2 82.06,-116.79 88.4,-119.74"/>
</g>
<!-- opened&#45;&gt;payments -->
<g id="edge4" class="edge">
<title>opened&#45;&gt;payments</title>
<path fill="none" stroke="black" d="M143.45,-144.07C147.82,-133.79 153.18,-120.32 156.9,-108 162.92,-88.09 167.78,-65.13 171.07,-47.51"/>
<polygon fill="black" stroke="black" points="174.5,-48.23 172.83,-37.77 167.61,-46.99 174.5,-48.23"/>
</g>
<!-- opened&#45;&gt;agreement -->
<g id="edge5" class="edge">
<title>opened&#45;&gt;agreement</title>
<path fill="none" stroke="black" d="M126.7,-144.05C122.41,-136.14 117.2,-126.54 112.39,-117.69"/>
<polygon fill="black" stroke="black" points="115.59,-116.24 107.74,-109.12 109.43,-119.58 115.59,-116.24"/>
</g>
<!-- agreement&#45;&gt;payments -->
<g id="edge6" class="edge">
<title>agreement&#45;&gt;payments</title>
<path fill="none" stroke="black" d="M115.99,-72.76C126.01,-63.78 138.63,-52.45 149.71,-42.51"/>
<polygon fill="black" stroke="black" points="151.95,-45.2 157.05,-35.92 147.27,-39.99 151.95,-45.2"/>
</g>
<!-- credit_limit -->
<g id="node5" class="node">
<title>credit_limit</title>
<ellipse fill="none" stroke="black" cx="135.9" cy="-234" rx="54.42" ry="18"/>
<text text-anchor="middle" x="135.9" y="-228.95" font-family="Times,serif" font-size="14.00">credit_limit</text>
</g>
<!-- credit_limit&#45;&gt;payments -->
<g id="edge7" class="edge">
<title>credit_limit&#45;&gt;payments</title>
<path fill="none" stroke="black" d="M155.7,-217.09C165.93,-207.55 177.4,-194.49 182.9,-180 199.61,-135.97 191.32,-80.23 183.68,-47.22"/>
<polygon fill="black" stroke="black" points="187.11,-46.49 181.31,-37.62 180.31,-48.17 187.11,-46.49"/>
</g>
<!-- credit_limit&#45;&gt;opened -->
<g id="edge8" class="edge">
<title>credit_limit&#45;&gt;opened</title>
<path fill="none" stroke="black" d="M135.9,-215.7C135.9,-208.41 135.9,-199.73 135.9,-191.54"/>
<polygon fill="black" stroke="black" points="139.4,-191.62 135.9,-181.62 132.4,-191.62 139.4,-191.62"/>
</g>
<!-- credit_limit&#45;&gt;agreement -->
<g id="edge9" class="edge">
<title>credit_limit&#45;&gt;agreement</title>
<path fill="none" stroke="black" d="M116.11,-217.09C105.87,-207.55 94.4,-194.49 88.9,-180 81.53,-160.59 84.32,-137.17 88.66,-119.23"/>
<polygon fill="black" stroke="black" points="91.98,-120.36 91.25,-109.79 85.23,-118.51 91.98,-120.36"/>
</g>
<!-- risk_score -->
<g id="node6" class="node">
<title>risk_score</title>
<ellipse fill="none" stroke="black" cx="256.9" cy="-234" rx="48.79" ry="18"/>
<text text-anchor="middle" x="256.9" y="-228.95" font-family="Times,serif" font-size="14.00">risk_score</text>
</g>
<!-- risk_score&#45;&gt;payments -->
<g id="edge10" class="edge">
<title>risk_score&#45;&gt;payments</title>
<path fill="none" stroke="black" d="M252.47,-215.69C244.55,-185.77 226.74,-122.72 204.9,-72 201.11,-63.19 196.33,-53.92 191.75,-45.63"/>
<polygon fill="black" stroke="black" points="194.88,-44.06 186.89,-37.09 188.79,-47.52 194.88,-44.06"/>
</g>
<!-- risk_score&#45;&gt;opened -->
<g id="edge11" class="edge">
<title>risk_score&#45;&gt;opened</title>
<path fill="none" stroke="black" d="M231.54,-218.33C213.36,-207.81 188.71,-193.55 168.99,-182.14"/>
<polygon fill="black" stroke="black" points="170.9,-179.21 160.5,-177.23 167.4,-185.26 170.9,-179.21"/>
</g>
<!-- risk_score&#45;&gt;agreement -->
<g id="edge12" class="edge">
<title>risk_score&#45;&gt;agreement</title>
<path fill="none" stroke="black" d="M245.46,-216.21C231.98,-197.21 208.19,-166.06 182.9,-144 168.5,-131.43 150.79,-119.89 135.28,-110.8"/>
<polygon fill="black" stroke="black" points="137.19,-107.86 126.77,-105.95 133.72,-113.94 137.19,-107.86"/>
</g>
</g>
</svg>