<?xml version="1.0" encoding="UTF-8" standalone="no"?>
<!DOCTYPE svg PUBLIC "-//W3C//DTD SVG 1.1//EN"
 "http://www.w3.org/Graphics/SVG/1.1/DTD/svg11.dtd">
<!-- Generated by graphviz version 12.2.1 (20241206.2353)
 -->
<!-- Pages: 1 -->
<svg width="90pt" height="260pt"
 viewBox="0.00 0.00 90.00 260.00" xmlns="http://www.w3.org/2000/svg" xmlns:xlink="http://www.w3.org/1999/xlink">
<g id="graph0" class="graph" transform="scale(1 1) rotate(0) translate(4 256)">
<polygon fill="white" stroke="none" points="-4,4 -4,-256 86,-256 86,4 -4,4"/>
<!-- T -->
<g id="node1" class="node">
<title>T</title>
<ellipse fill="none" stroke="black" cx="55" cy="-90" rx="27" ry="18"/>
<text text-anchor="middle" x="55" y="-84.95" font-family="Times,serif" font-size="14.00">T</text>
</g>
<!-- Y -->
<g id="node2" class="node">
<title>Y</title>
<ellipse fill="none" stroke="black" cx="27" cy="-18" rx="27" ry="18"/>
<text text-anchor="middle" x="27" y="-12.95" font-family="Times,serif" font-size="14.00">Y</text>
</g>
<!-- T&#45;&gt;Y -->
<g id="edge1" class="edge">
<title>T&#45;&gt;Y</title>
<path fill="none" stroke="black" d="M48.36,-72.41C45.23,-64.57 41.4,-54.99 37.85,-46.13"/>
<polygon fill="black" stroke="black" points="41.11,-44.86 34.15,-36.88 34.61,-47.46 41.11,-44.86"/>
</g>
<!-- X -->
<g id="node3" class="node">
<title>X</title>
<ellipse fill="none" stroke="black" cx="27" cy="-234" rx="27" ry="18"/>
<text text-anchor="middle" x="27" y="-228.95" font-family="Times,serif" font-size="14.00">X</text>
</g>
<!-- X&#45;&gt;Y -->
<g id="edge2" class="edge">
<title>X&#45;&gt;Y</title>
<path fill="none" stroke="black" d="M23.75,-215.89C21.95,-205.54 19.91,-192.06 19,-180 15.41,-132.13 15.41,-119.87 19,-72 19.6,-63.99 20.71,-55.35 21.91,-47.43"/>
<polygon fill="black" stroke="black" points="25.35,-48.04 23.51,-37.61 18.45,-46.91 25.35,-48.04"/>
</g>
<!-- e(x) -->
<g id="node4" class="node">
<title>e(x)</title>
<ellipse fill="none" stroke="black" cx="55" cy="-162" rx="27" ry="18"/>
<text text-anchor="middle" x="55" y="-156.95" font-family="Times,serif" font-size="14.00">e(x)</text>
</g>
<!-- X&#45;&gt;e(x) -->
<g id="edge3" class="edge">
<title>X&#45;&gt;e(x)</title>
<path fill="none" stroke="black" d="M33.64,-216.41C36.77,-208.57 40.6,-198.99 44.15,-190.13"/>
<polygon fill="black" stroke="black" points="47.39,-191.46 47.85,-180.88 40.89,-188.86 47.39,-191.46"/>
</g>
<!-- e(x)&#45;&gt;T -->
<g id="edge4" class="edge">
<title>e(x)&#45;&gt;T</title>
<path fill="none" stroke="black" d="M55,-143.7C55,-136.41 55,-127.73 55,-119.54"/>
<polygon fill="black" stroke="black" points="58.5,-119.62 55,-109.62 51.5,-119.62 58.5,-119.62"/>
</g>
</g>
</svg>