<?xml version="1.0" encoding="UTF-8" standalone="no"?>
<!DOCTYPE svg PUBLIC "-//W3C//DTD SVG 1.1//EN"
 "http://www.w3.org/Graphics/SVG/1.1/DTD/svg11.dtd">
<!-- Generated by graphviz version 12.2.1 (20241206.2353)
 -->
<!-- Pages: 1 -->
<svg width="99pt" height="188pt"
 viewBox="0.00 0.00 98.78 188.00" xmlns="http://www.w3.org/2000/svg" xmlns:xlink="http://www.w3.org/1999/xlink">
<g id="graph0" class="graph" transform="scale(1 1) rotate(0) translate(4 184)">
<polygon fill="white" stroke="none" points="-4,4 -4,-184 94.78,-184 94.78,4 -4,4"/>
<!-- ability -->
<g id="node1" class="node">
<title>ability</title>
<ellipse fill="none" stroke="black" cx="56.32" cy="-162" rx="34.46" ry="18"/>
<text text-anchor="middle" x="56.32" y="-156.95" font-family="Times,serif" font-size="14.00">ability</text>
</g>
<!-- educ -->
<g id="node2" class="node">
<title>educ</title>
<ellipse fill="none" stroke="black" cx="28.32" cy="-90" rx="28.32" ry="18"/>
<text text-anchor="middle" x="28.32" y="-84.95" font-family="Times,serif" font-size="14.00">educ</text>
</g>
<!-- ability&#45;&gt;educ -->
<g id="edge1" class="edge">
<title>ability&#45;&gt;educ</title>
<path fill="none" stroke="black" d="M49.54,-144.05C46.45,-136.32 42.7,-126.96 39.23,-118.27"/>
<polygon fill="black" stroke="black" points="42.56,-117.18 35.6,-109.19 36.06,-119.78 42.56,-117.18"/>
</g>
<!-- wage -->
<g id="node3" class="node">
<title>wage</title>
<ellipse fill="none" stroke="black" cx="56.32" cy="-18" rx="30.37" ry="18"/>
<text text-anchor="middle" x="56.32" y="-12.95" font-family="Times,serif" font-size="14.00">wage</text>
</g>
<!-- ability&#45;&gt;wage -->
<g id="edge2" class="edge">
<title>ability&#45;&gt;wage</title>
<path fill="none" stroke="black" d="M59.97,-143.91C62,-133.57 64.3,-120.09 65.32,-108 66.66,-92.06 66.66,-87.94 65.32,-72 64.64,-63.97 63.4,-55.33 62.05,-47.4"/>
<polygon fill="black" stroke="black" points="65.49,-46.79 60.25,-37.58 58.61,-48.05 65.49,-46.79"/>
</g>
<!-- educ&#45;&gt;wage -->
<g id="edge3" class="edge">
<title>educ&#45;&gt;wage</title>
<path fill="none" stroke="black" d="M35.1,-72.05C38.19,-64.32 41.94,-54.96 45.41,-46.27"/>
<polygon fill="black" stroke="black" points="48.58,-47.78 49.04,-37.19 42.08,-45.18 48.58,-47.78"/>
</g>
</g>
</svg>