<?xml version="1.0" encoding="UTF-8" standalone="no"?>
<!DOCTYPE svg PUBLIC "-//W3C//DTD SVG 1.1//EN"
 "http://www.w3.org/Graphics/SVG/1.1/DTD/svg11.dtd">
<!-- Generated by graphviz version 12.2.1 (20241206.2353)
 -->
<!-- Pages: 1 -->
<svg width="295pt" height="188pt"
 viewBox="0.00 0.00 294.65 188.00" xmlns="http://www.w3.org/2000/svg" xmlns:xlink="http://www.w3.org/1999/xlink">
<g id="graph0" class="graph" transform="scale(1 1) rotate(0) translate(4 184)">
<polygon fill="white" stroke="none" points="-4,4 -4,-184 290.65,-184 290.65,4 -4,4"/>
<!-- Z -->
<g id="node1" class="node">
<title>Z</title>
<ellipse fill="none" stroke="black" cx="27" cy="-162" rx="27" ry="18"/>
<text text-anchor="middle" x="27" y="-156.95" font-family="Times,serif" font-size="14.00">Z</text>
</g>
<!-- X -->
<g id="node2" class="node">
<title>X</title>
<ellipse fill="none" stroke="black" cx="27" cy="-90" rx="27" ry="18"/>
<text text-anchor="middle" x="27" y="-84.95" font-family="Times,serif" font-size="14.00">X</text>
</g>
<!-- Z&#45;&gt;X -->
<g id="edge1" class="edge">
<title>Z&#45;&gt;X</title>
<path fill="none" stroke="black" d="M27,-143.7C27,-136.41 27,-127.73 27,-119.54"/>
<polygon fill="black" stroke="black" points="30.5,-119.62 27,-109.62 23.5,-119.62 30.5,-119.62"/>
</g>
<!-- U -->
<g id="node3" class="node">
<title>U</title>
<ellipse fill="none" stroke="black" cx="99" cy="-162" rx="27" ry="18"/>
<text text-anchor="middle" x="99" y="-156.95" font-family="Times,serif" font-size="14.00">U</text>
</g>
<!-- U&#45;&gt;X -->
<g id="edge2" class="edge">
<title>U&#45;&gt;X</title>
<path fill="none" stroke="black" d="M84.08,-146.5C74.23,-136.92 61.14,-124.19 49.97,-113.34"/>
<polygon fill="black" stroke="black" points="52.59,-111 42.98,-106.54 47.71,-116.02 52.59,-111"/>
</g>
<!-- Y -->
<g id="node4" class="node">
<title>Y</title>
<ellipse fill="none" stroke="black" cx="99" cy="-90" rx="27" ry="18"/>
<text text-anchor="middle" x="99" y="-84.95" font-family="Times,serif" font-size="14.00">Y</text>
</g>
<!-- U&#45;&gt;Y -->
<g id="edge3" class="edge">
<title>U&#45;&gt;Y</title>
<path fill="none" stroke="black" d="M99,-143.7C99,-136.41 99,-127.73 99,-119.54"/>
<polygon fill="black" stroke="black" points="102.5,-119.62 99,-109.62 95.5,-119.62 102.5,-119.62"/>
</g>
<!-- medicine -->
<g id="node5" class="node">
<title>medicine</title>
<ellipse fill="none" stroke="black" cx="208" cy="-90" rx="45.21" ry="18"/>
<text text-anchor="middle" x="208" y="-84.95" font-family="Times,serif" font-size="14.00">medicine</text>
</g>
<!-- survived -->
<g id="node6" class="node">
<title>survived</title>
<ellipse fill="none" stroke="black" cx="244" cy="-18" rx="42.65" ry="18"/>
<text text-anchor="middle" x="244" y="-12.95" font-family="Times,serif" font-size="14.00">survived</text>
</g>
<!-- medicine&#45;&gt;survived -->
<g id="edge4" class="edge">
<title>medicine&#45;&gt;survived</title>
<path fill="none" stroke="black" d="M216.71,-72.05C220.74,-64.23 225.62,-54.75 230.13,-45.98"/>
<polygon fill="black" stroke="black" points="233.21,-47.63 234.67,-37.13 226.99,-44.43 233.21,-47.63"/>
</g>
<!-- severeness -->
<g id="node7" class="node">
<title>severeness</title>
<ellipse fill="none" stroke="black" cx="228" cy="-162" rx="50.33" ry="18"/>
<text text-anchor="middle" x="228" y="-156.95" font-family="Times,serif" font-size="14.00">severeness</text>
</g>
<!-- severeness&#45;&gt;medicine -->
<g id="edge6" class="edge">
<title>severeness&#45;&gt;medicine</title>
<path fill="none" stroke="black" d="M223.06,-143.7C220.92,-136.24 218.38,-127.32 215.99,-118.97"/>
<polygon fill="black" stroke="black" points="219.42,-118.21 213.3,-109.56 212.68,-120.14 219.42,-118.21"/>
</g>
<!-- severeness&#45;&gt;survived -->
<g id="edge5" class="edge">
<title>severeness&#45;&gt;survived</title>
<path fill="none" stroke="black" d="M242.05,-144.57C249.56,-134.68 258.06,-121.43 262,-108 267.96,-87.68 262.71,-64.17 256.37,-46.42"/>
<polygon fill="black" stroke="black" points="259.72,-45.39 252.81,-37.35 253.2,-47.94 259.72,-45.39"/>
</g>
</g>
</svg>