<?xml version="1.0" encoding="UTF-8" standalone="no"?>
<!DOCTYPE svg PUBLIC "-//W3C//DTD SVG 1.1//EN"
 "http://www.w3.org/Graphics/SVG/1.1/DTD/svg11.dtd">
<!-- Generated by graphviz version 12.2.1 (20241206.2353)
 -->
<!-- Pages: 1 -->
<svg width="305pt" height="116pt"
 viewBox="0.00 0.00 304.83 116.00" xmlns="http://www.w3.org/2000/svg" xmlns:xlink="http://www.w3.org/1999/xlink">
<g id="graph0" class="graph" transform="scale(1 1) rotate(0) translate(4 112)">
<polygon fill="white" stroke="none" points="-4,4 -4,-112 300.83,-112 300.83,4 -4,4"/>
<!-- W=w -->
<g id="node1" class="node">
<title>W=w</title>
<ellipse fill="none" stroke="black" cx="32.41" cy="-90" rx="32.41" ry="18"/>
<text text-anchor="middle" x="32.41" y="-84.95" font-family="Times,serif" font-size="14.00">W=w</text>
</g>
<!-- T -->
<g id="node2" class="node">
<title>T</title>
<ellipse fill="none" stroke="black" cx="109.41" cy="-90" rx="27" ry="18"/>
<text text-anchor="middle" x="109.41" y="-84.95" font-family="Times,serif" font-size="14.00">T</text>
</g>
<!-- Y -->
<g id="node3" class="node">
<title>Y</title>
<ellipse fill="none" stroke="black" cx="109.41" cy="-18" rx="27" ry="18"/>
<text text-anchor="middle" x="109.41" y="-12.95" font-family="Times,serif" font-size="14.00">Y</text>
</g>
<!-- T&#45;&gt;Y -->
<g id="edge1" class="edge">
<title>T&#45;&gt;Y</title>
<path fill="none" stroke="black" d="M109.41,-71.7C109.41,-64.41 109.41,-55.73 109.41,-47.54"/>
<polygon fill="black" stroke="black" points="112.91,-47.62 109.41,-37.62 105.91,-47.62 112.91,-47.62"/>
</g>
<!-- IQ=x -->
<g id="node4" class="node">
<title>IQ=x</title>
<ellipse fill="none" stroke="black" cx="185.41" cy="-90" rx="30.88" ry="18"/>
<text text-anchor="middle" x="185.41" y="-84.95" font-family="Times,serif" font-size="14.00">IQ=x</text>
</g>
<!-- Educ -->
<g id="node5" class="node">
<title>Educ</title>
<ellipse fill="none" stroke="black" cx="264.41" cy="-90" rx="29.86" ry="18"/>
<text text-anchor="middle" x="264.41" y="-84.95" font-family="Times,serif" font-size="14.00">Educ</text>
</g>
<!-- Wage -->
<g id="node6" class="node">
<title>Wage</title>
<ellipse fill="none" stroke="black" cx="264.41" cy="-18" rx="32.41" ry="18"/>
<text text-anchor="middle" x="264.41" y="-12.95" font-family="Times,serif" font-size="14.00">Wage</text>
</g>
<!-- Educ&#45;&gt;Wage -->
<g id="edge2" class="edge">
<title>Educ&#45;&gt;Wage</title>
<path fill="none" stroke="red" d="M264.41,-71.7C264.41,-64.41 264.41,-55.73 264.41,-47.54"/>
<polygon fill="red" stroke="red" points="267.91,-47.62 264.41,-37.62 260.91,-47.62 267.91,-47.62"/>
</g>
</g>
</svg>