<?xml version="1.0" encoding="UTF-8" standalone="no"?>
<!DOCTYPE svg PUBLIC "-//W3C//DTD SVG 1.1//EN"
 "http://www.w3.org/Graphics/SVG/1.1/DTD/svg11.dtd">
<!-- Generated by graphviz version 12.2.1 (20241206.2353)
 -->
<!-- Pages: 1 -->
<svg width="196pt" height="188pt"
 viewBox="0.00 0.00 196.30 188.00" xmlns="http://www.w3.org/2000/svg" xmlns:xlink="http://www.w3.org/1999/xlink">
<g id="graph0" class="graph" transform="scale(1 1) rotate(0) translate(4 184)">
<polygon fill="white" stroke="none" points="-4,4 -4,-184 192.3,-184 192.3,4 -4,4"/>
<!-- ability -->
<g id="node1" class="node">
<title>ability</title>
<ellipse fill="none" stroke="black" cx="153.84" cy="-162" rx="34.46" ry="18"/>
<text text-anchor="middle" x="153.84" y="-156.95" font-family="Times,serif" font-size="14.00">ability</text>
</g>
<!-- educ -->
<g id="node2" class="node">
<title>educ</title>
<ellipse fill="none" stroke="black" cx="97.84" cy="-90" rx="28.32" ry="18"/>
<text text-anchor="middle" x="97.84" y="-84.95" font-family="Times,serif" font-size="14.00">educ</text>
</g>
<!-- ability&#45;&gt;educ -->
<g id="edge1" class="edge">
<title>ability&#45;&gt;educ</title>
<path fill="none" stroke="black" d="M141.13,-145.12C134.09,-136.31 125.18,-125.18 117.28,-115.31"/>
<polygon fill="black" stroke="black" points="120.04,-113.14 111.06,-107.52 114.57,-117.52 120.04,-113.14"/>
</g>
<!-- wage -->
<g id="node3" class="node">
<title>wage</title>
<ellipse fill="none" stroke="black" cx="125.84" cy="-18" rx="30.37" ry="18"/>
<text text-anchor="middle" x="125.84" y="-12.95" font-family="Times,serif" font-size="14.00">wage</text>
</g>
<!-- ability&#45;&gt;wage -->
<g id="edge2" class="edge">
<title>ability&#45;&gt;wage</title>
<path fill="none" stroke="black" d="M150.46,-143.87C145.73,-119.88 137.08,-75.99 131.39,-47.16"/>
<polygon fill="black" stroke="black" points="134.89,-46.81 129.52,-37.67 128.02,-48.16 134.89,-46.81"/>
</g>
<!-- educ&#45;&gt;wage -->
<g id="edge3" class="edge">
<title>educ&#45;&gt;wage</title>
<path fill="none" stroke="black" d="M104.62,-72.05C107.71,-64.32 111.46,-54.96 114.93,-46.27"/>
<polygon fill="black" stroke="black" points="118.1,-47.78 118.56,-37.19 111.6,-45.18 118.1,-47.78"/>
</g>
<!-- instrument -->
<g id="node4" class="node">
<title>instrument</title>
<ellipse fill="none" stroke="black" cx="50.84" cy="-162" rx="50.84" ry="18"/>
<text text-anchor="middle" x="50.84" y="-156.95" font-family="Times,serif" font-size="14.00">instrument</text>
</g>
<!-- instrument&#45;&gt;educ -->
<g id="edge4" class="edge">
<title>instrument&#45;&gt;educ</title>
<path fill="none" stroke="black" d="M62.22,-144.05C67.8,-135.73 74.65,-125.54 80.84,-116.32"/>
<polygon fill="black" stroke="black" points="83.7,-118.34 86.37,-108.09 77.89,-114.44 83.7,-118.34"/>
</g>
</g>
</svg>