<?xml version="1.0" encoding="UTF-8" standalone="no"?>
<!DOCTYPE svg PUBLIC "-//W3C//DTD SVG 1.1//EN"
 "http://www.w3.org/Graphics/SVG/1.1/DTD/svg11.dtd">
<!-- Generated by graphviz version 12.2.1 (20241206.2353)
 -->
<!-- Pages: 1 -->
<svg width="228pt" height="188pt"
 viewBox="0.00 0.00 228.17 188.00" xmlns="http://www.w3.org/2000/svg" xmlns:xlink="http://www.w3.org/1999/xlink">
<g id="graph0" class="graph" transform="scale(1 1) rotate(0) translate(4 184)">
<polygon fill="white" stroke="none" points="-4,4 -4,-184 224.17,-184 224.17,4 -4,4"/>
<!-- push assigned -->
<g id="node1" class="node">
<title>push assigned</title>
<ellipse fill="none" stroke="black" cx="62.61" cy="-162" rx="62.61" ry="18"/>
<text text-anchor="middle" x="62.61" y="-156.95" font-family="Times,serif" font-size="14.00">push assigned</text>
</g>
<!-- push delivered -->
<g id="node2" class="node">
<title>push delivered</title>
<ellipse fill="none" stroke="black" cx="88.61" cy="-90" rx="65.17" ry="18"/>
<text text-anchor="middle" x="88.61" y="-84.95" font-family="Times,serif" font-size="14.00">push delivered</text>
</g>
<!-- push assigned&#45;&gt;push delivered -->
<g id="edge1" class="edge">
<title>push assigned&#45;&gt;push delivered</title>
<path fill="none" stroke="black" d="M69.04,-143.7C71.84,-136.15 75.2,-127.12 78.33,-118.68"/>
<polygon fill="black" stroke="black" points="81.53,-120.12 81.73,-109.52 74.97,-117.68 81.53,-120.12"/>
</g>
<!-- in app purchase -->
<g id="node3" class="node">
<title>in app purchase</title>
<ellipse fill="none" stroke="black" cx="134.61" cy="-18" rx="69.26" ry="18"/>
<text text-anchor="middle" x="134.61" y="-12.95" font-family="Times,serif" font-size="14.00">in app purchase</text>
</g>
<!-- push delivered&#45;&gt;in app purchase -->
<g id="edge2" class="edge">
<title>push delivered&#45;&gt;in app purchase</title>
<path fill="none" stroke="black" d="M99.75,-72.05C105,-64.06 111.39,-54.33 117.26,-45.4"/>
<polygon fill="black" stroke="black" points="120.18,-47.33 122.75,-37.05 114.33,-43.49 120.18,-47.33"/>
</g>
<!-- income -->
<g id="node4" class="node">
<title>income</title>
<ellipse fill="none" stroke="blue" cx="181.61" cy="-162" rx="38.56" ry="18"/>
<text text-anchor="middle" x="181.61" y="-156.95" font-family="Times,serif" font-size="14.00">income</text>
</g>
<!-- income&#45;&gt;push delivered -->
<g id="edge4" class="edge">
<title>income&#45;&gt;push delivered</title>
<path fill="none" stroke="black" d="M161.89,-146.15C149.47,-136.81 133.18,-124.54 119.11,-113.96"/>
<polygon fill="black" stroke="black" points="121.56,-111.42 111.46,-108.2 117.35,-117.01 121.56,-111.42"/>
</g>
<!-- income&#45;&gt;in app purchase -->
<g id="edge3" class="edge">
<title>income&#45;&gt;in app purchase</title>
<path fill="none" stroke="black" d="M179.34,-143.55C176.63,-125.31 171.34,-96.06 162.61,-72 159.45,-63.29 155.1,-54.24 150.78,-46.12"/>
<polygon fill="black" stroke="black" points="153.86,-44.47 145.94,-37.43 147.75,-47.87 153.86,-44.47"/>
</g>
</g>
</svg>