<?xml version="1.0" encoding="UTF-8" standalone="no"?>
<!DOCTYPE svg PUBLIC "-//W3C//DTD SVG 1.1//EN"
 "http://www.w3.org/Graphics/SVG/1.1/DTD/svg11.dtd">
<!-- Generated by graphviz version 12.2.1 (20241206.2353)
 -->
<!-- Pages: 1 -->
<svg width="453pt" height="260pt"
 viewBox="0.00 0.00 453.42 260.00" xmlns="http://www.w3.org/2000/svg" xmlns:xlink="http://www.w3.org/1999/xlink">
<g id="graph0" class="graph" transform="scale(1 1) rotate(0) translate(4 256)">
<polygon fill="white" stroke="none" points="-4,4 -4,-256 449.42,-256 449.42,4 -4,4"/>
<!-- X1 -->
<g id="node1" class="node">
<title>X1</title>
<ellipse fill="none" stroke="black" cx="27" cy="-162" rx="27" ry="18"/>
<text text-anchor="middle" x="27" y="-156.95" font-family="Times,serif" font-size="14.00">X1</text>
</g>
<!-- T -->
<g id="node2" class="node">
<title>T</title>
<ellipse fill="none" stroke="black" cx="91" cy="-90" rx="27" ry="18"/>
<text text-anchor="middle" x="91" y="-84.95" font-family="Times,serif" font-size="14.00">T</text>
</g>
<!-- X1&#45;&gt;T -->
<g id="edge1" class="edge">
<title>X1&#45;&gt;T</title>
<path fill="none" stroke="black" d="M40.57,-146.15C49.06,-136.87 60.17,-124.73 69.8,-114.19"/>
<polygon fill="black" stroke="black" points="72.26,-116.68 76.43,-106.94 67.09,-111.96 72.26,-116.68"/>
</g>
<!-- Y -->
<g id="node3" class="node">
<title>Y</title>
<ellipse fill="none" stroke="black" cx="91" cy="-18" rx="27" ry="18"/>
<text text-anchor="middle" x="91" y="-12.95" font-family="Times,serif" font-size="14.00">Y</text>
</g>
<!-- X1&#45;&gt;Y -->
<g id="edge4" class="edge">
<title>X1&#45;&gt;Y</title>
<path fill="none" stroke="black" d="M30.85,-143.71C35.29,-125.35 43.5,-95.77 55,-72 59.72,-62.25 66.05,-52.25 72.1,-43.6"/>
<polygon fill="black" stroke="black" points="74.77,-45.88 77.8,-35.72 69.1,-41.77 74.77,-45.88"/>
</g>
<!-- T&#45;&gt;Y -->
<g id="edge2" class="edge">
<title>T&#45;&gt;Y</title>
<path fill="none" stroke="black" d="M91,-71.7C91,-64.41 91,-55.73 91,-47.54"/>
<polygon fill="black" stroke="black" points="94.5,-47.62 91,-37.62 87.5,-47.62 94.5,-47.62"/>
</g>
<!-- X2 -->
<g id="node4" class="node">
<title>X2</title>
<ellipse fill="none" stroke="black" cx="99" cy="-162" rx="27" ry="18"/>
<text text-anchor="middle" x="99" y="-156.95" font-family="Times,serif" font-size="14.00">X2</text>
</g>
<!-- X2&#45;&gt;T -->
<g id="edge3" class="edge">
<title>X2&#45;&gt;T</title>
<path fill="none" stroke="black" d="M97.02,-143.7C96.19,-136.41 95.2,-127.73 94.26,-119.54"/>
<polygon fill="black" stroke="black" points="97.74,-119.15 93.13,-109.61 90.78,-119.94 97.74,-119.15"/>
</g>
<!-- U -->
<g id="node5" class="node">
<title>U</title>
<ellipse fill="none" stroke="black" cx="127" cy="-234" rx="27" ry="18"/>
<text text-anchor="middle" x="127" y="-228.95" font-family="Times,serif" font-size="14.00">U</text>
</g>
<!-- U&#45;&gt;Y -->
<g id="edge6" class="edge">
<title>U&#45;&gt;Y</title>
<path fill="none" stroke="black" d="M130.76,-215.87C136.58,-185.7 145.3,-121.56 127,-72 123.25,-61.84 117.14,-51.74 111.02,-43.13"/>
<polygon fill="black" stroke="black" points="113.94,-41.2 105.13,-35.32 108.36,-45.41 113.94,-41.2"/>
</g>
<!-- U&#45;&gt;X2 -->
<g id="edge5" class="edge">
<title>U&#45;&gt;X2</title>
<path fill="none" stroke="black" d="M120.36,-216.41C117.23,-208.57 113.4,-198.99 109.85,-190.13"/>
<polygon fill="black" stroke="black" points="113.11,-188.86 106.15,-180.88 106.61,-191.46 113.11,-188.86"/>
</g>
<!-- Family Income -->
<g id="node6" class="node">
<title>Family Income</title>
<ellipse fill="none" stroke="black" cx="250" cy="-162" rx="68.24" ry="18"/>
<text text-anchor="middle" x="250" y="-156.95" font-family="Times,serif" font-size="14.00">Family Income</text>
</g>
<!-- Educ -->
<g id="node7" class="node">
<title>Educ</title>
<ellipse fill="none" stroke="black" cx="347" cy="-90" rx="29.86" ry="18"/>
<text text-anchor="middle" x="347" y="-84.95" font-family="Times,serif" font-size="14.00">Educ</text>
</g>
<!-- Family Income&#45;&gt;Educ -->
<g id="edge7" class="edge">
<title>Family Income&#45;&gt;Educ</title>
<path fill="none" stroke="black" d="M272.5,-144.76C286.45,-134.69 304.49,-121.68 319.32,-110.98"/>
<polygon fill="black" stroke="black" points="321.24,-113.91 327.3,-105.22 317.14,-108.23 321.24,-113.91"/>
</g>
<!-- Wage -->
<g id="node8" class="node">
<title>Wage</title>
<ellipse fill="none" stroke="black" cx="347" cy="-18" rx="32.41" ry="18"/>
<text text-anchor="middle" x="347" y="-12.95" font-family="Times,serif" font-size="14.00">Wage</text>
</g>
<!-- Family Income&#45;&gt;Wage -->
<g id="edge10" class="edge">
<title>Family Income&#45;&gt;Wage</title>
<path fill="none" stroke="black" d="M260.83,-143.75C272.28,-125.67 290.98,-96.56 308,-72 314.4,-62.76 321.65,-52.79 328.14,-44.02"/>
<polygon fill="black" stroke="black" points="330.74,-46.39 333.91,-36.28 325.12,-42.21 330.74,-46.39"/>
</g>
<!-- Educ&#45;&gt;Wage -->
<g id="edge8" class="edge">
<title>Educ&#45;&gt;Wage</title>
<path fill="none" stroke="black" d="M347,-71.7C347,-64.41 347,-55.73 347,-47.54"/>
<polygon fill="black" stroke="black" points="350.5,-47.62 347,-37.62 343.5,-47.62 350.5,-47.62"/>
</g>
<!-- SAT -->
<g id="node9" class="node">
<title>SAT</title>
<ellipse fill="none" stroke="black" cx="364" cy="-162" rx="27.3" ry="18"/>
<text text-anchor="middle" x="364" y="-156.95" font-family="Times,serif" font-size="14.00">SAT</text>
</g>
<!-- SAT&#45;&gt;Educ -->
<g id="edge9" class="edge">
<title>SAT&#45;&gt;Educ</title>
<path fill="none" stroke="black" d="M359.88,-144.05C358.07,-136.6 355.9,-127.64 353.85,-119.22"/>
<polygon fill="black" stroke="black" points="357.31,-118.64 351.55,-109.75 350.51,-120.29 357.31,-118.64"/>
</g>
<!-- Intelligence -->
<g id="node10" class="node">
<title>Intelligence</title>
<ellipse fill="none" stroke="black" cx="391" cy="-234" rx="54.42" ry="18"/>
<text text-anchor="middle" x="391" y="-228.95" font-family="Times,serif" font-size="14.00">Intelligence</text>
</g>
<!-- Intelligence&#45;&gt;Wage -->
<g id="edge12" class="edge">
<title>Intelligence&#45;&gt;Wage</title>
<path fill="none" stroke="black" d="M394.65,-215.91C396.68,-205.57 398.98,-192.09 400,-180 404.07,-131.77 405.44,-116.33 386,-72 381.6,-61.97 375.02,-52.01 368.52,-43.49"/>
<polygon fill="black" stroke="black" points="371.27,-41.32 362.27,-35.72 365.81,-45.7 371.27,-41.32"/>
</g>
<!-- Intelligence&#45;&gt;SAT -->
<g id="edge11" class="edge">
<title>Intelligence&#45;&gt;SAT</title>
<path fill="none" stroke="black" d="M384.33,-215.7C381.37,-208.04 377.83,-198.85 374.53,-190.3"/>
<polygon fill="black" stroke="black" points="377.82,-189.1 370.96,-181.03 371.29,-191.62 377.82,-189.1"/>
</g>
</g>
</svg>