<?xml version="1.0" encoding="UTF-8" standalone="no"?>
<!DOCTYPE svg PUBLIC "-//W3C//DTD SVG 1.1//EN"
 "http://www.w3.org/Graphics/SVG/1.1/DTD/svg11.dtd">
<!-- Generated by graphviz version 12.2.1 (20241206.2353)
 -->
<!-- Pages: 1 -->
<svg width="89pt" height="260pt"
 viewBox="0.00 0.00 89.00 260.00" xmlns="http://www.w3.org/2000/svg" xmlns:xlink="http://www.w3.org/1999/xlink">
<g id="graph0" class="graph" transform="scale(1 1) rotate(0) translate(4 256)">
<polygon fill="white" stroke="none" points="-4,4 -4,-256 85,-256 85,4 -4,4"/>
<!-- T -->
<g id="node1" class="node">
<title>T</title>
<ellipse fill="none" stroke="gold" cx="54" cy="-234" rx="27" ry="18"/>
<text text-anchor="middle" x="54" y="-228.95" font-family="Times,serif" font-size="14.00">T</text>
</g>
<!-- X_1 -->
<g id="node2" class="node">
<title>X_1</title>
<ellipse fill="none" stroke="red" cx="27" cy="-162" rx="27" ry="18"/>
<text text-anchor="middle" x="27" y="-156.95" font-family="Times,serif" font-size="14.00">X_1</text>
</g>
<!-- T&#45;&gt;X_1 -->
<g id="edge1" class="edge">
<title>T&#45;&gt;X_1</title>
<path fill="none" stroke="black" d="M47.46,-216.05C44.48,-208.32 40.87,-198.96 37.52,-190.27"/>
<polygon fill="black" stroke="black" points="40.88,-189.27 34.02,-181.2 34.35,-191.79 40.88,-189.27"/>
</g>
<!-- X_2 -->
<g id="node4" class="node">
<title>X_2</title>
<ellipse fill="none" stroke="red" cx="54" cy="-18" rx="27" ry="18"/>
<text text-anchor="middle" x="54" y="-12.95" font-family="Times,serif" font-size="14.00">X_2</text>
</g>
<!-- T&#45;&gt;X_2 -->
<g id="edge3" class="edge">
<title>T&#45;&gt;X_2</title>
<path fill="none" stroke="black" d="M57.65,-215.91C59.68,-205.57 61.98,-192.09 63,-180 67.03,-132.17 67.03,-119.83 63,-72 62.32,-63.97 61.08,-55.33 59.73,-47.4"/>
<polygon fill="black" stroke="black" points="63.17,-46.79 57.93,-37.58 56.29,-48.05 63.17,-46.79"/>
</g>
<!-- Y -->
<g id="node3" class="node">
<title>Y</title>
<ellipse fill="none" stroke="black" cx="27" cy="-90" rx="27" ry="18"/>
<text text-anchor="middle" x="27" y="-84.95" font-family="Times,serif" font-size="14.00">Y</text>
</g>
<!-- X_1&#45;&gt;Y -->
<g id="edge2" class="edge">
<title>X_1&#45;&gt;Y</title>
<path fill="none" stroke="black" d="M27,-143.7C27,-136.41 27,-127.73 27,-119.54"/>
<polygon fill="black" stroke="black" points="30.5,-119.62 27,-109.62 23.5,-119.62 30.5,-119.62"/>
</g>
<!-- Y&#45;&gt;X_2 -->
<g id="edge4" class="edge">
<title>Y&#45;&gt;X_2</title>
<path fill="none" stroke="black" d="M33.54,-72.05C36.52,-64.32 40.13,-54.96 43.48,-46.27"/>
<polygon fill="black" stroke="black" points="46.65,-47.79 46.98,-37.2 40.12,-45.27 46.65,-47.79"/>
</g>
</g>
</svg>