<?xml version="1.0" encoding="UTF-8" standalone="no"?>
<!DOCTYPE svg PUBLIC "-//W3C//DTD SVG 1.1//EN"
 "http://www.w3.org/Graphics/SVG/1.1/DTD/svg11.dtd">
<!-- Generated by graphviz version 12.2.1 (20241206.2353)
 -->
<!-- Pages: 1 -->
<svg width="306pt" height="188pt"
 viewBox="0.00 0.00 305.94 188.00" xmlns="http://www.w3.org/2000/svg" xmlns:xlink="http://www.w3.org/1999/xlink">
<g id="graph0" class="graph" transform="scale(1 1) rotate(0) translate(4 184)">
<polygon fill="white" stroke="none" points="-4,4 -4,-184 301.94,-184 301.94,4 -4,4"/>
<!-- A -->
<g id="node1" class="node">
<title>A</title>
<ellipse fill="none" stroke="black" cx="27" cy="-162" rx="27" ry="18"/>
<text text-anchor="middle" x="27" y="-156.95" font-family="Times,serif" font-size="14.00">A</text>
</g>
<!-- B -->
<g id="node2" class="node">
<title>B</title>
<ellipse fill="none" stroke="black" cx="27" cy="-90" rx="27" ry="18"/>
<text text-anchor="middle" x="27" y="-84.95" font-family="Times,serif" font-size="14.00">B</text>
</g>
<!-- A&#45;&gt;B -->
<g id="edge1" class="edge">
<title>A&#45;&gt;B</title>
<path fill="none" stroke="black" d="M27,-143.7C27,-136.41 27,-127.73 27,-119.54"/>
<polygon fill="black" stroke="black" points="30.5,-119.62 27,-109.62 23.5,-119.62 30.5,-119.62"/>
</g>
<!-- C -->
<g id="node3" class="node">
<title>C</title>
<ellipse fill="none" stroke="black" cx="27" cy="-18" rx="27" ry="18"/>
<text text-anchor="middle" x="27" y="-12.95" font-family="Times,serif" font-size="14.00">C</text>
</g>
<!-- B&#45;&gt;C -->
<g id="edge2" class="edge">
<title>B&#45;&gt;C</title>
<path fill="none" stroke="black" d="M27,-71.7C27,-64.41 27,-55.73 27,-47.54"/>
<polygon fill="black" stroke="black" points="30.5,-47.62 27,-37.62 23.5,-47.62 30.5,-47.62"/>
</g>
<!-- X -->
<g id="node4" class="node">
<title>X</title>
<ellipse fill="none" stroke="black" cx="99" cy="-162" rx="27" ry="18"/>
<text text-anchor="middle" x="99" y="-156.95" font-family="Times,serif" font-size="14.00">X</text>
</g>
<!-- Y -->
<g id="node5" class="node">
<title>Y</title>
<ellipse fill="none" stroke="red" cx="99" cy="-90" rx="27" ry="18"/>
<text text-anchor="middle" x="99" y="-84.95" font-family="Times,serif" font-size="14.00">Y</text>
</g>
<!-- X&#45;&gt;Y -->
<g id="edge3" class="edge">
<title>X&#45;&gt;Y</title>
<path fill="none" stroke="black" d="M99,-143.7C99,-136.41 99,-127.73 99,-119.54"/>
<polygon fill="black" stroke="black" points="102.5,-119.62 99,-109.62 95.5,-119.62 102.5,-119.62"/>
</g>
<!-- Z -->
<g id="node6" class="node">
<title>Z</title>
<ellipse fill="none" stroke="black" cx="99" cy="-18" rx="27" ry="18"/>
<text text-anchor="middle" x="99" y="-12.95" font-family="Times,serif" font-size="14.00">Z</text>
</g>
<!-- Y&#45;&gt;Z -->
<g id="edge4" class="edge">
<title>Y&#45;&gt;Z</title>
<path fill="none" stroke="black" d="M99,-71.7C99,-64.41 99,-55.73 99,-47.54"/>
<polygon fill="black" stroke="black" points="102.5,-47.62 99,-37.62 95.5,-47.62 102.5,-47.62"/>
</g>
<!-- causal knowledge -->
<g id="node7" class="node">
<title>causal knowledge</title>
<ellipse fill="none" stroke="black" cx="221" cy="-162" rx="76.94" ry="18"/>
<text text-anchor="middle" x="221" y="-156.95" font-family="Times,serif" font-size="14.00">causal knowledge</text>
</g>
<!-- solve problems -->
<g id="node8" class="node">
<title>solve problems</title>
<ellipse fill="none" stroke="black" cx="221" cy="-90" rx="67.73" ry="18"/>
<text text-anchor="middle" x="221" y="-84.95" font-family="Times,serif" font-size="14.00">solve problems</text>
</g>
<!-- causal knowledge&#45;&gt;solve problems -->
<g id="edge5" class="edge">
<title>causal knowledge&#45;&gt;solve problems</title>
<path fill="none" stroke="black" d="M221,-143.7C221,-136.41 221,-127.73 221,-119.54"/>
<polygon fill="black" stroke="black" points="224.5,-119.62 221,-109.62 217.5,-119.62 224.5,-119.62"/>
</g>
<!-- job promotion -->
<g id="node9" class="node">
<title>job promotion</title>
<ellipse fill="none" stroke="black" cx="221" cy="-18" rx="64.15" ry="18"/>
<text text-anchor="middle" x="221" y="-12.95" font-family="Times,serif" font-size="14.00">job promotion</text>
</g>
<!-- solve problems&#45;&gt;job promotion -->
<g id="edge6" class="edge">
<title>solve problems&#45;&gt;job promotion</title>
<path fill="none" stroke="black" d="M221,-71.7C221,-64.41 221,-55.73 221,-47.54"/>
<polygon fill="black" stroke="black" points="224.5,-47.62 221,-37.62 217.5,-47.62 224.5,-47.62"/>
</g>
</g>
</svg>