<?xml version="1.0" encoding="UTF-8" standalone="no"?>
<!DOCTYPE svg PUBLIC "-//W3C//DTD SVG 1.1//EN"
 "http://www.w3.org/Graphics/SVG/1.1/DTD/svg11.dtd">
<!-- Generated by graphviz version 12.2.1 (20241206.2353)
 -->
<!-- Pages: 1 -->
<svg width="148pt" height="188pt"
 viewBox="0.00 0.00 148.46 188.00" xmlns="http://www.w3.org/2000/svg" xmlns:xlink="http://www.w3.org/1999/xlink">
<g id="graph0" class="graph" transform="scale(1 1) rotate(0) translate(4 184)">
<polygon fill="white" stroke="none" points="-4,4 -4,-184 144.46,-184 144.46,4 -4,4"/>
<!-- ability -->
<g id="node1" class="node">
<title>ability</title>
<ellipse fill="none" stroke="black" cx="106" cy="-162" rx="34.46" ry="18"/>
<text text-anchor="middle" x="106" y="-156.95" font-family="Times,serif" font-size="14.00">ability</text>
</g>
<!-- educ -->
<g id="node2" class="node">
<title>educ</title>
<ellipse fill="none" stroke="black" cx="50" cy="-90" rx="28.32" ry="18"/>
<text text-anchor="middle" x="50" y="-84.95" font-family="Times,serif" font-size="14.00">educ</text>
</g>
<!-- ability&#45;&gt;educ -->
<g id="edge1" class="edge">
<title>ability&#45;&gt;educ</title>
<path fill="none" stroke="black" d="M93.29,-145.12C86.25,-136.31 77.34,-125.18 69.44,-115.31"/>
<polygon fill="black" stroke="black" points="72.2,-113.14 63.22,-107.52 66.73,-117.52 72.2,-113.14"/>
</g>
<!-- wage -->
<g id="node3" class="node">
<title>wage</title>
<ellipse fill="none" stroke="black" cx="78" cy="-18" rx="30.37" ry="18"/>
<text text-anchor="middle" x="78" y="-12.95" font-family="Times,serif" font-size="14.00">wage</text>
</g>
<!-- ability&#45;&gt;wage -->
<g id="edge2" class="edge">
<title>ability&#45;&gt;wage</title>
<path fill="none" stroke="black" d="M102.62,-143.87C97.89,-119.88 89.24,-75.99 83.55,-47.16"/>
<polygon fill="black" stroke="black" points="87.05,-46.81 81.68,-37.67 80.18,-48.16 87.05,-46.81"/>
</g>
<!-- educ&#45;&gt;wage -->
<g id="edge3" class="edge">
<title>educ&#45;&gt;wage</title>
<path fill="none" stroke="black" d="M56.78,-72.05C59.87,-64.32 63.62,-54.96 67.09,-46.27"/>
<polygon fill="black" stroke="black" points="70.26,-47.78 70.72,-37.19 63.76,-45.18 70.26,-47.78"/>
</g>
<!-- qob -->
<g id="node4" class="node">
<title>qob</title>
<ellipse fill="none" stroke="black" cx="27" cy="-162" rx="27" ry="18"/>
<text text-anchor="middle" x="27" y="-156.95" font-family="Times,serif" font-size="14.00">qob</text>
</g>
<!-- qob&#45;&gt;educ -->
<g id="edge4" class="edge">
<title>qob&#45;&gt;educ</title>
<path fill="none" stroke="black" d="M32.57,-144.05C35.08,-136.4 38.12,-127.16 40.95,-118.56"/>
<polygon fill="black" stroke="black" points="44.21,-119.82 44.01,-109.23 37.56,-117.63 44.21,-119.82"/>
</g>
</g>
</svg>