<?xml version="1.0" encoding="UTF-8" standalone="no"?>
<!DOCTYPE svg PUBLIC "-//W3C//DTD SVG 1.1//EN"
 "http://www.w3.org/Graphics/SVG/1.1/DTD/svg11.dtd">
<!-- Generated by graphviz version 12.2.1 (20241206.2353)
 -->
<!-- Pages: 1 -->
<svg width="258pt" height="188pt"
 viewBox="0.00 0.00 257.88 188.00" xmlns="http://www.w3.org/2000/svg" xmlns:xlink="http://www.w3.org/1999/xlink">
<g id="graph0" class="graph" transform="scale(1 1) rotate(0) translate(4 184)">
<polygon fill="white" stroke="none" points="-4,4 -4,-184 253.88,-184 253.88,4 -4,4"/>
<!-- push assigned -->
<g id="node1" class="node">
<title>push assigned</title>
<ellipse fill="none" stroke="black" cx="62.61" cy="-162" rx="62.61" ry="18"/>
<text text-anchor="middle" x="62.61" y="-156.95" font-family="Times,serif" font-size="14.00">push assigned</text>
</g>
<!-- push delivered -->
<g id="node2" class="node">
<title>push delivered</title>
<ellipse fill="none" stroke="black" cx="134.61" cy="-90" rx="65.17" ry="18"/>
<text text-anchor="middle" x="134.61" y="-84.95" font-family="Times,serif" font-size="14.00">push delivered</text>
</g>
<!-- in app purchase -->
<g id="node3" class="node">
<title>in app purchase</title>
<ellipse fill="none" stroke="black" cx="180.61" cy="-18" rx="69.26" ry="18"/>
<text text-anchor="middle" x="180.61" y="-12.95" font-family="Times,serif" font-size="14.00">in app purchase</text>
</g>
<!-- push delivered&#45;&gt;in app purchase -->
<g id="edge1" class="edge">
<title>push delivered&#45;&gt;in app purchase</title>
<path fill="none" stroke="black" d="M145.75,-72.05C151,-64.06 157.39,-54.33 163.26,-45.4"/>
<polygon fill="black" stroke="black" points="166.18,-47.33 168.75,-37.05 160.33,-43.49 166.18,-47.33"/>
</g>
<!-- income -->
<g id="node4" class="node">
<title>income</title>
<ellipse fill="none" stroke="blue" cx="181.61" cy="-162" rx="38.56" ry="18"/>
<text text-anchor="middle" x="181.61" y="-156.95" font-family="Times,serif" font-size="14.00">income</text>
</g>
<!-- income&#45;&gt;push delivered -->
<g id="edge3" class="edge">
<title>income&#45;&gt;push delivered</title>
<path fill="none" stroke="black" d="M170.47,-144.41C165.05,-136.34 158.4,-126.43 152.31,-117.35"/>
<polygon fill="black" stroke="black" points="155.32,-115.56 146.84,-109.21 149.51,-119.47 155.32,-115.56"/>
</g>
<!-- income&#45;&gt;in app purchase -->
<g id="edge2" class="edge">
<title>income&#45;&gt;in app purchase</title>
<path fill="none" stroke="black" d="M192.52,-144.61C198.56,-134.52 205.48,-121.05 208.61,-108 212.35,-92.44 212.46,-87.53 208.61,-72 206.38,-63.01 202.32,-53.87 197.97,-45.76"/>
<polygon fill="black" stroke="black" points="201,-44.02 192.97,-37.11 194.94,-47.52 201,-44.02"/>
</g>
</g>
</svg>