<?xml version="1.0" encoding="UTF-8" standalone="no"?>
<!DOCTYPE svg PUBLIC "-//W3C//DTD SVG 1.1//EN"
 "http://www.w3.org/Graphics/SVG/1.1/DTD/svg11.dtd">
<!-- Generated by graphviz version 12.2.1 (20241206.2353)
 -->
<!-- Pages: 1 -->
<svg width="453pt" height="260pt"
 viewBox="0.00 0.00 453.17 260.00" xmlns="http://www.w3.org/2000/svg" xmlns:xlink="http://www.w3.org/1999/xlink">
<g id="graph0" class="graph" transform="scale(1 1) rotate(0) translate(4 256)">
<polygon fill="white" stroke="none" points="-4,4 -4,-256 449.17,-256 449.17,4 -4,4"/>
<!-- X -->
<g id="node1" class="node">
<title>X</title>
<ellipse fill="none" stroke="black" cx="55" cy="-234" rx="27" ry="18"/>
<text text-anchor="middle" x="55" y="-228.95" font-family="Times,serif" font-size="14.00">X</text>
</g>
<!-- U -->
<g id="node2" class="node">
<title>U</title>
<ellipse fill="none" stroke="black" cx="55" cy="-162" rx="27" ry="18"/>
<text text-anchor="middle" x="55" y="-156.95" font-family="Times,serif" font-size="14.00">U</text>
</g>
<!-- X&#45;&gt;U -->
<g id="edge1" class="edge">
<title>X&#45;&gt;U</title>
<path fill="none" stroke="black" d="M55,-215.7C55,-208.41 55,-199.73 55,-191.54"/>
<polygon fill="black" stroke="black" points="58.5,-191.62 55,-181.62 51.5,-191.62 58.5,-191.62"/>
</g>
<!-- T -->
<g id="node3" class="node">
<title>T</title>
<ellipse fill="none" stroke="black" cx="27" cy="-90" rx="27" ry="18"/>
<text text-anchor="middle" x="27" y="-84.95" font-family="Times,serif" font-size="14.00">T</text>
</g>
<!-- U&#45;&gt;T -->
<g id="edge2" class="edge">
<title>U&#45;&gt;T</title>
<path fill="none" stroke="black" d="M48.36,-144.41C45.23,-136.57 41.4,-126.99 37.85,-118.13"/>
<polygon fill="black" stroke="black" points="41.11,-116.86 34.15,-108.88 34.61,-119.46 41.11,-116.86"/>
</g>
<!-- Y -->
<g id="node4" class="node">
<title>Y</title>
<ellipse fill="none" stroke="black" cx="55" cy="-18" rx="27" ry="18"/>
<text text-anchor="middle" x="55" y="-12.95" font-family="Times,serif" font-size="14.00">Y</text>
</g>
<!-- U&#45;&gt;Y -->
<g id="edge4" class="edge">
<title>U&#45;&gt;Y</title>
<path fill="none" stroke="black" d="M58.25,-143.89C60.05,-133.54 62.09,-120.06 63,-108 64.2,-92.04 64.2,-87.96 63,-72 62.4,-63.99 61.29,-55.35 60.09,-47.43"/>
<polygon fill="black" stroke="black" points="63.55,-46.91 58.49,-37.61 56.65,-48.04 63.55,-46.91"/>
</g>
<!-- T&#45;&gt;Y -->
<g id="edge3" class="edge">
<title>T&#45;&gt;Y</title>
<path fill="none" stroke="black" d="M33.64,-72.41C36.77,-64.57 40.6,-54.99 44.15,-46.13"/>
<polygon fill="black" stroke="black" points="47.39,-47.46 47.85,-36.88 40.89,-44.86 47.39,-47.46"/>
</g>
<!-- Intelligence -->
<g id="node5" class="node">
<title>Intelligence</title>
<ellipse fill="none" stroke="black" cx="246" cy="-162" rx="54.42" ry="18"/>
<text text-anchor="middle" x="246" y="-156.95" font-family="Times,serif" font-size="14.00">Intelligence</text>
</g>
<!-- IQ -->
<g id="node6" class="node">
<title>IQ</title>
<ellipse fill="none" stroke="black" cx="137" cy="-90" rx="27" ry="18"/>
<text text-anchor="middle" x="137" y="-84.95" font-family="Times,serif" font-size="14.00">IQ</text>
</g>
<!-- Intelligence&#45;&gt;IQ -->
<g id="edge5" class="edge">
<title>Intelligence&#45;&gt;IQ</title>
<path fill="none" stroke="black" d="M221.81,-145.46C205.24,-134.82 183.19,-120.67 165.73,-109.45"/>
<polygon fill="black" stroke="black" points="167.64,-106.51 157.33,-104.06 163.85,-112.4 167.64,-106.51"/>
</g>
<!-- SAT -->
<g id="node7" class="node">
<title>SAT</title>
<ellipse fill="none" stroke="black" cx="209" cy="-90" rx="27.3" ry="18"/>
<text text-anchor="middle" x="209" y="-84.95" font-family="Times,serif" font-size="14.00">SAT</text>
</g>
<!-- Intelligence&#45;&gt;SAT -->
<g id="edge6" class="edge">
<title>Intelligence&#45;&gt;SAT</title>
<path fill="none" stroke="black" d="M237.04,-144.05C232.8,-136.03 227.64,-126.26 222.9,-117.3"/>
<polygon fill="black" stroke="black" points="226.09,-115.85 218.33,-108.65 219.91,-119.12 226.09,-115.85"/>
</g>
<!-- Educ -->
<g id="node10" class="node">
<title>Educ</title>
<ellipse fill="none" stroke="black" cx="284" cy="-90" rx="29.86" ry="18"/>
<text text-anchor="middle" x="284" y="-84.95" font-family="Times,serif" font-size="14.00">Educ</text>
</g>
<!-- Intelligence&#45;&gt;Educ -->
<g id="edge9" class="edge">
<title>Intelligence&#45;&gt;Educ</title>
<path fill="none" stroke="black" d="M255.2,-144.05C259.56,-136.03 264.86,-126.26 269.72,-117.3"/>
<polygon fill="black" stroke="black" points="272.73,-119.1 274.43,-108.64 266.58,-115.76 272.73,-119.1"/>
</g>
<!-- Wage -->
<g id="node11" class="node">
<title>Wage</title>
<ellipse fill="none" stroke="black" cx="313" cy="-18" rx="32.41" ry="18"/>
<text text-anchor="middle" x="313" y="-12.95" font-family="Times,serif" font-size="14.00">Wage</text>
</g>
<!-- Intelligence&#45;&gt;Wage -->
<g id="edge11" class="edge">
<title>Intelligence&#45;&gt;Wage</title>
<path fill="none" stroke="black" d="M278.84,-147.47C295.28,-138.8 313.64,-125.81 323,-108 332.9,-89.17 329.36,-65.05 323.92,-46.66"/>
<polygon fill="black" stroke="black" points="327.26,-45.61 320.77,-37.23 320.62,-47.82 327.26,-45.61"/>
</g>
<!-- Father&#39;s Educ -->
<g id="node8" class="node">
<title>Father&#39;s Educ</title>
<ellipse fill="none" stroke="black" cx="236" cy="-234" rx="61.08" ry="18"/>
<text text-anchor="middle" x="236" y="-228.95" font-family="Times,serif" font-size="14.00">Father&#39;s Educ</text>
</g>
<!-- Father&#39;s Educ&#45;&gt;Intelligence -->
<g id="edge7" class="edge">
<title>Father&#39;s Educ&#45;&gt;Intelligence</title>
<path fill="none" stroke="black" d="M238.47,-215.7C239.53,-208.32 240.78,-199.52 241.96,-191.25"/>
<polygon fill="black" stroke="black" points="245.39,-192 243.34,-181.6 238.46,-191.01 245.39,-192"/>
</g>
<!-- Mother&#39;s Educ -->
<g id="node9" class="node">
<title>Mother&#39;s Educ</title>
<ellipse fill="none" stroke="black" cx="380" cy="-234" rx="65.17" ry="18"/>
<text text-anchor="middle" x="380" y="-228.95" font-family="Times,serif" font-size="14.00">Mother&#39;s Educ</text>
</g>
<!-- Mother&#39;s Educ&#45;&gt;Intelligence -->
<g id="edge8" class="edge">
<title>Mother&#39;s Educ&#45;&gt;Intelligence</title>
<path fill="none" stroke="black" d="M350.59,-217.64C331,-207.4 305.05,-193.85 283.91,-182.8"/>
<polygon fill="black" stroke="black" points="285.79,-179.84 275.3,-178.31 282.55,-186.04 285.79,-179.84"/>
</g>
<!-- Educ&#45;&gt;Wage -->
<g id="edge10" class="edge">
<title>Educ&#45;&gt;Wage</title>
<path fill="none" stroke="black" d="M291.02,-72.05C294.23,-64.32 298.1,-54.96 301.7,-46.27"/>
<polygon fill="black" stroke="black" points="304.87,-47.77 305.47,-37.19 298.4,-45.09 304.87,-47.77"/>
</g>
</g>
</svg>