<?xml version="1.0" encoding="UTF-8" standalone="no"?>
<!DOCTYPE svg PUBLIC "-//W3C//DTD SVG 1.1//EN"
 "http://www.w3.org/Graphics/SVG/1.1/DTD/svg11.dtd">
<!-- Generated by graphviz version 12.2.1 (20241206.2353)
 -->
<!-- Pages: 1 -->
<svg width="221pt" height="188pt"
 viewBox="0.00 0.00 221.41 188.00" xmlns="http://www.w3.org/2000/svg" xmlns:xlink="http://www.w3.org/1999/xlink">
<g id="graph0" class="graph" transform="scale(1 1) rotate(0) translate(4 184)">
<polygon fill="white" stroke="none" points="-4,4 -4,-184 217.41,-184 217.41,4 -4,4"/>
<!-- T -->
<g id="node1" class="node">
<title>T</title>
<ellipse fill="none" stroke="black" cx="38" cy="-162" rx="27" ry="18"/>
<text text-anchor="middle" x="38" y="-156.95" font-family="Times,serif" font-size="14.00">T</text>
</g>
<!-- X -->
<g id="node2" class="node">
<title>X</title>
<ellipse fill="none" stroke="red" cx="27" cy="-18" rx="27" ry="18"/>
<text text-anchor="middle" x="27" y="-12.95" font-family="Times,serif" font-size="14.00">X</text>
</g>
<!-- T&#45;&gt;X -->
<g id="edge1" class="edge">
<title>T&#45;&gt;X</title>
<path fill="none" stroke="black" d="M27.76,-145.02C21.88,-134.86 15.06,-121.18 12,-108 7.29,-87.69 11.53,-64.44 16.69,-46.81"/>
<polygon fill="black" stroke="black" points="20.01,-47.88 19.75,-37.29 13.35,-45.74 20.01,-47.88"/>
</g>
<!-- Y -->
<g id="node3" class="node">
<title>Y</title>
<ellipse fill="none" stroke="black" cx="48" cy="-90" rx="27" ry="18"/>
<text text-anchor="middle" x="48" y="-84.95" font-family="Times,serif" font-size="14.00">Y</text>
</g>
<!-- T&#45;&gt;Y -->
<g id="edge2" class="edge">
<title>T&#45;&gt;Y</title>
<path fill="none" stroke="black" d="M40.47,-143.7C41.53,-136.32 42.78,-127.52 43.96,-119.25"/>
<polygon fill="black" stroke="black" points="47.39,-120 45.34,-109.6 40.46,-119.01 47.39,-120"/>
</g>
<!-- Y&#45;&gt;X -->
<g id="edge3" class="edge">
<title>Y&#45;&gt;X</title>
<path fill="none" stroke="black" d="M42.92,-72.05C40.62,-64.4 37.85,-55.16 35.27,-46.56"/>
<polygon fill="black" stroke="black" points="38.7,-45.81 32.47,-37.24 31.99,-47.82 38.7,-45.81"/>
</g>
<!-- Educ -->
<g id="node4" class="node">
<title>Educ</title>
<ellipse fill="none" stroke="black" cx="130" cy="-162" rx="29.86" ry="18"/>
<text text-anchor="middle" x="130" y="-156.95" font-family="Times,serif" font-size="14.00">Educ</text>
</g>
<!-- Investments -->
<g id="node5" class="node">
<title>Investments</title>
<ellipse fill="none" stroke="black" cx="141" cy="-18" rx="55.96" ry="18"/>
<text text-anchor="middle" x="141" y="-12.95" font-family="Times,serif" font-size="14.00">Investments</text>
</g>
<!-- Educ&#45;&gt;Investments -->
<g id="edge4" class="edge">
<title>Educ&#45;&gt;Investments</title>
<path fill="none" stroke="black" d="M131.35,-143.59C133.21,-119.61 136.57,-76.14 138.8,-47.42"/>
<polygon fill="black" stroke="black" points="142.27,-47.86 139.56,-37.62 135.3,-47.32 142.27,-47.86"/>
</g>
<!-- Wage -->
<g id="node6" class="node">
<title>Wage</title>
<ellipse fill="none" stroke="black" cx="181" cy="-90" rx="32.41" ry="18"/>
<text text-anchor="middle" x="181" y="-84.95" font-family="Times,serif" font-size="14.00">Wage</text>
</g>
<!-- Educ&#45;&gt;Wage -->
<g id="edge5" class="edge">
<title>Educ&#45;&gt;Wage</title>
<path fill="none" stroke="black" d="M141.57,-145.12C147.83,-136.52 155.71,-125.72 162.77,-116.02"/>
<polygon fill="black" stroke="black" points="165.52,-118.19 168.58,-108.04 159.86,-114.07 165.52,-118.19"/>
</g>
<!-- Wage&#45;&gt;Investments -->
<g id="edge6" class="edge">
<title>Wage&#45;&gt;Investments</title>
<path fill="none" stroke="black" d="M171.52,-72.41C167,-64.51 161.49,-54.85 156.39,-45.94"/>
<polygon fill="black" stroke="black" points="159.44,-44.22 151.44,-37.27 153.36,-47.69 159.44,-44.22"/>
</g>
</g>
</svg>