<?xml version="1.0" encoding="UTF-8" standalone="no"?>
<!DOCTYPE svg PUBLIC "-//W3C//DTD SVG 1.1//EN"
 "http://www.w3.org/Graphics/SVG/1.1/DTD/svg11.dtd">
<!-- Generated by graphviz version 12.2.1 (20241206.2353)
 -->
<!-- Pages: 1 -->
<svg width="352pt" height="188pt"
 viewBox="0.00 0.00 352.19 188.00" xmlns="http://www.w3.org/2000/svg" xmlns:xlink="http://www.w3.org/1999/xlink">
<g id="graph0" class="graph" transform="scale(1 1) rotate(0) translate(4 184)">
<polygon fill="white" stroke="none" points="-4,4 -4,-184 348.19,-184 348.19,4 -4,4"/>
<!-- W -->
<g id="node1" class="node">
<title>W</title>
<ellipse fill="none" stroke="black" cx="69" cy="-162" rx="27" ry="18"/>
<text text-anchor="middle" x="69" y="-156.95" font-family="Times,serif" font-size="14.00">W</text>
</g>
<!-- T -->
<g id="node2" class="node">
<title>T</title>
<ellipse fill="none" stroke="black" cx="27" cy="-90" rx="27" ry="18"/>
<text text-anchor="middle" x="27" y="-84.95" font-family="Times,serif" font-size="14.00">T</text>
</g>
<!-- W&#45;&gt;T -->
<g id="edge1" class="edge">
<title>W&#45;&gt;T</title>
<path fill="none" stroke="black" d="M59.26,-144.76C54.28,-136.46 48.09,-126.15 42.48,-116.79"/>
<polygon fill="black" stroke="black" points="45.61,-115.22 37.47,-108.45 39.61,-118.82 45.61,-115.22"/>
</g>
<!-- Y -->
<g id="node3" class="node">
<title>Y</title>
<ellipse fill="none" stroke="black" cx="66" cy="-18" rx="27" ry="18"/>
<text text-anchor="middle" x="66" y="-12.95" font-family="Times,serif" font-size="14.00">Y</text>
</g>
<!-- W&#45;&gt;Y -->
<g id="edge2" class="edge">
<title>W&#45;&gt;Y</title>
<path fill="none" stroke="black" d="M68.63,-143.59C68.13,-119.61 67.21,-76.14 66.6,-47.42"/>
<polygon fill="black" stroke="black" points="70.1,-47.55 66.39,-37.62 63.11,-47.7 70.1,-47.55"/>
</g>
<!-- T&#45;&gt;Y -->
<g id="edge3" class="edge">
<title>T&#45;&gt;Y</title>
<path fill="none" stroke="black" d="M36.05,-72.76C40.62,-64.55 46.29,-54.37 51.46,-45.09"/>
<polygon fill="black" stroke="black" points="54.46,-46.91 56.27,-36.47 48.34,-43.5 54.46,-46.91"/>
</g>
<!-- IQ -->
<g id="node4" class="node">
<title>IQ</title>
<ellipse fill="none" stroke="black" cx="161" cy="-162" rx="27" ry="18"/>
<text text-anchor="middle" x="161" y="-156.95" font-family="Times,serif" font-size="14.00">IQ</text>
</g>
<!-- Educ -->
<g id="node5" class="node">
<title>Educ</title>
<ellipse fill="none" stroke="black" cx="149" cy="-90" rx="29.86" ry="18"/>
<text text-anchor="middle" x="149" y="-84.95" font-family="Times,serif" font-size="14.00">Educ</text>
</g>
<!-- IQ&#45;&gt;Educ -->
<g id="edge4" class="edge">
<title>IQ&#45;&gt;Educ</title>
<path fill="none" stroke="red" d="M158.03,-143.7C156.77,-136.32 155.26,-127.52 153.84,-119.25"/>
<polygon fill="red" stroke="red" points="157.33,-118.86 152.19,-109.6 150.43,-120.04 157.33,-118.86"/>
</g>
<!-- Wage -->
<g id="node6" class="node">
<title>Wage</title>
<ellipse fill="none" stroke="black" cx="165" cy="-18" rx="32.41" ry="18"/>
<text text-anchor="middle" x="165" y="-12.95" font-family="Times,serif" font-size="14.00">Wage</text>
</g>
<!-- IQ&#45;&gt;Wage -->
<g id="edge5" class="edge">
<title>IQ&#45;&gt;Wage</title>
<path fill="none" stroke="red" d="M171.63,-145.07C177.74,-134.93 184.82,-121.25 188,-108 191.73,-92.44 191.25,-87.67 188,-72 186.18,-63.22 182.82,-54.11 179.23,-45.98"/>
<polygon fill="red" stroke="red" points="182.4,-44.5 174.95,-36.97 176.08,-47.5 182.4,-44.5"/>
</g>
<!-- Educ&#45;&gt;Wage -->
<g id="edge6" class="edge">
<title>Educ&#45;&gt;Wage</title>
<path fill="none" stroke="red" d="M152.96,-71.7C154.64,-64.32 156.65,-55.52 158.54,-47.25"/>
<polygon fill="red" stroke="red" points="161.94,-48.11 160.75,-37.58 155.11,-46.55 161.94,-48.11"/>
</g>
<!-- Crime -->
<g id="node7" class="node">
<title>Crime</title>
<ellipse fill="none" stroke="black" cx="300" cy="-162" rx="34.46" ry="18"/>
<text text-anchor="middle" x="300" y="-156.95" font-family="Times,serif" font-size="14.00">Crime</text>
</g>
<!-- Police -->
<g id="node8" class="node">
<title>Police</title>
<ellipse fill="none" stroke="black" cx="269" cy="-90" rx="33.95" ry="18"/>
<text text-anchor="middle" x="269" y="-84.95" font-family="Times,serif" font-size="14.00">Police</text>
</g>
<!-- Crime&#45;&gt;Police -->
<g id="edge7" class="edge">
<title>Crime&#45;&gt;Police</title>
<path fill="none" stroke="red" d="M292.5,-144.05C289.07,-136.32 284.92,-126.96 281.08,-118.27"/>
<polygon fill="red" stroke="red" points="284.3,-116.9 277.05,-109.17 277.9,-119.73 284.3,-116.9"/>
</g>
<!-- Violence -->
<g id="node9" class="node">
<title>Violence</title>
<ellipse fill="none" stroke="black" cx="300" cy="-18" rx="44.19" ry="18"/>
<text text-anchor="middle" x="300" y="-12.95" font-family="Times,serif" font-size="14.00">Violence</text>
</g>
<!-- Crime&#45;&gt;Violence -->
<g id="edge8" class="edge">
<title>Crime&#45;&gt;Violence</title>
<path fill="none" stroke="red" d="M304.87,-143.98C307.56,-133.67 310.64,-120.19 312,-108 313.78,-92.1 313.78,-87.9 312,-72 311.08,-63.81 309.4,-55.04 307.57,-47.04"/>
<polygon fill="red" stroke="red" points="311.01,-46.37 305.23,-37.49 304.21,-48.04 311.01,-46.37"/>
</g>
<!-- Police&#45;&gt;Violence -->
<g id="edge9" class="edge">
<title>Police&#45;&gt;Violence</title>
<path fill="none" stroke="blue" d="M276.5,-72.05C279.93,-64.32 284.08,-54.96 287.92,-46.27"/>
<polygon fill="blue" stroke="blue" points="291.1,-47.73 291.95,-37.17 284.7,-44.9 291.1,-47.73"/>
</g>
</g>
</svg>