<?xml version="1.0" encoding="UTF-8" standalone="no"?>
<!DOCTYPE svg PUBLIC "-//W3C//DTD SVG 1.1//EN"
 "http://www.w3.org/Graphics/SVG/1.1/DTD/svg11.dtd">
<!-- Generated by graphviz version 12.2.1 (20241206.2353)
 -->
<!-- Pages: 1 -->
<svg width="204pt" height="260pt"
 viewBox="0.00 0.00 204.09 260.00" xmlns="http://www.w3.org/2000/svg" xmlns:xlink="http://www.w3.org/1999/xlink">
<g id="graph0" class="graph" transform="scale(1 1) rotate(0) translate(4 256)">
<polygon fill="white" stroke="none" points="-4,4 -4,-256 200.09,-256 200.09,4 -4,4"/>
<!-- X -->
<g id="node1" class="node">
<title>X</title>
<ellipse fill="none" stroke="black" cx="27" cy="-234" rx="27" ry="18"/>
<text text-anchor="middle" x="27" y="-228.95" font-family="Times,serif" font-size="14.00">X</text>
</g>
<!-- T -->
<g id="node2" class="node">
<title>T</title>
<ellipse fill="none" stroke="gold" cx="27" cy="-162" rx="27" ry="18"/>
<text text-anchor="middle" x="27" y="-156.95" font-family="Times,serif" font-size="14.00">T</text>
</g>
<!-- X&#45;&gt;T -->
<g id="edge1" class="edge">
<title>X&#45;&gt;T</title>
<path fill="none" stroke="black" d="M27,-215.7C27,-208.41 27,-199.73 27,-191.54"/>
<polygon fill="black" stroke="black" points="30.5,-191.62 27,-181.62 23.5,-191.62 30.5,-191.62"/>
</g>
<!-- Y -->
<g id="node3" class="node">
<title>Y</title>
<ellipse fill="none" stroke="black" cx="27" cy="-90" rx="27" ry="18"/>
<text text-anchor="middle" x="27" y="-84.95" font-family="Times,serif" font-size="14.00">Y</text>
</g>
<!-- T&#45;&gt;Y -->
<g id="edge2" class="edge">
<title>T&#45;&gt;Y</title>
<path fill="none" stroke="black" d="M27,-143.7C27,-136.41 27,-127.73 27,-119.54"/>
<polygon fill="black" stroke="black" points="30.5,-119.62 27,-109.62 23.5,-119.62 30.5,-119.62"/>
</g>
<!-- treatment -->
<g id="node4" class="node">
<title>treatment</title>
<ellipse fill="none" stroke="gold" cx="118" cy="-90" rx="46.23" ry="18"/>
<text text-anchor="middle" x="118" y="-84.95" font-family="Times,serif" font-size="14.00">treatment</text>
</g>
<!-- days -->
<g id="node7" class="node">
<title>days</title>
<ellipse fill="none" stroke="black" cx="155" cy="-18" rx="27.81" ry="18"/>
<text text-anchor="middle" x="155" y="-12.95" font-family="Times,serif" font-size="14.00">days</text>
</g>
<!-- treatment&#45;&gt;days -->
<g id="edge6" class="edge">
<title>treatment&#45;&gt;days</title>
<path fill="none" stroke="black" d="M126.96,-72.05C131.2,-64.03 136.36,-54.26 141.1,-45.3"/>
<polygon fill="black" stroke="black" points="144.09,-47.12 145.67,-36.65 137.91,-43.85 144.09,-47.12"/>
</g>
<!-- severity -->
<g id="node5" class="node">
<title>severity</title>
<ellipse fill="none" stroke="black" cx="156" cy="-234" rx="40.09" ry="18"/>
<text text-anchor="middle" x="156" y="-228.95" font-family="Times,serif" font-size="14.00">severity</text>
</g>
<!-- hospital -->
<g id="node6" class="node">
<title>hospital</title>
<ellipse fill="none" stroke="black" cx="121" cy="-162" rx="40.09" ry="18"/>
<text text-anchor="middle" x="121" y="-156.95" font-family="Times,serif" font-size="14.00">hospital</text>
</g>
<!-- severity&#45;&gt;hospital -->
<g id="edge3" class="edge">
<title>severity&#45;&gt;hospital</title>
<path fill="none" stroke="black" d="M147.53,-216.05C143.62,-208.23 138.87,-198.75 134.49,-189.98"/>
<polygon fill="black" stroke="black" points="137.67,-188.52 130.07,-181.14 131.41,-191.65 137.67,-188.52"/>
</g>
<!-- severity&#45;&gt;days -->
<g id="edge4" class="edge">
<title>severity&#45;&gt;days</title>
<path fill="none" stroke="black" d="M161.49,-216.01C164.57,-205.71 168.15,-192.23 170,-180 177.17,-132.52 180.83,-119.38 173,-72 171.6,-63.53 169.02,-54.59 166.25,-46.52"/>
<polygon fill="black" stroke="black" points="169.57,-45.41 162.82,-37.24 163,-47.83 169.57,-45.41"/>
</g>
<!-- hospital&#45;&gt;treatment -->
<g id="edge5" class="edge">
<title>hospital&#45;&gt;treatment</title>
<path fill="none" stroke="black" d="M120.26,-143.7C119.95,-136.41 119.57,-127.73 119.22,-119.54"/>
<polygon fill="black" stroke="black" points="122.72,-119.46 118.8,-109.62 115.73,-119.76 122.72,-119.46"/>
</g>
</g>
</svg>